<?xml version="1.0" standalone="yes"?>
<svg xmlns="http://www.w3.org/2000/svg" width="750" height="750">
<path style="fill:#010101; stroke:none;" d="M0 0L0 750L750 750L750 0L0 0z"/>
<path style="fill:#bcddff; stroke:none;" d="M157 181L157 302L97 258.753L65 232C76.6934 248.6 94.6373 262.637 109 277L195 363C205.868 373.868 216.621 384.762 227.09 396C231.254 400.47 236.84 408.138 243 409.682C257.246 413.254 276.293 410 291 410C322.655 410 356.762 413.156 388 407.535C395.797 406.133 403.994 403.364 411 399.68C415.151 397.497 420.258 392.634 425 392.136C432.898 391.305 441.752 407.452 448 411.397C454.3 415.374 466.76 413 474 413L541 413C555.442 413 570.585 412.301 583 420.904C611.617 440.737 605.951 481.882 575 495.688C556.071 504.131 527.378 499 507 499C513.849 513.478 525.772 526.619 535.804 539C540.01 544.19 544.905 551.92 551 554.972C557.845 558.4 570.447 556 578 556C619.561 556 656.884 534.023 673.573 495C685.128 467.979 683.914 434.03 670.11 408C665.755 399.786 660.241 391.809 653.911 385C651.576 382.489 646.073 378.792 646.055 375C646.038 371.51 651.014 367.411 653.166 365C659.256 358.179 664.907 351.117 669.218 343C684.056 315.067 685.987 279.666 672.216 251C668.346 242.943 663.158 235.802 657.41 229C622.126 187.252 566.737 195 518 195C486.475 195 451.132 199.533 420 194.787C402.238 192.079 386.755 182.374 368 181.089C344.562 179.484 320.497 181 297 181L157 181z"/>
<path style="fill:#6fb2fb; stroke:none;" d="M371 181L371 182L377 182L371 181z"/>
<path style="fill:#3191f9; stroke:none;" d="M377 181L378 182L377 181z"/>
<path style="fill:#0177f7; stroke:none;" d="M378 181L378 182C394.223 182.698 408.238 193.974 424 194C464 194.067 504 194 544 194C568.954 194 595.475 191.806 619 201.873C669.871 223.641 695.514 280.24 674.547 332C667.785 348.692 656.562 361.438 644 374L644 375C679.811 410.834 695.728 463.472 666.459 509C646.107 540.658 613.683 556 577 556C569.644 556 558.939 557.967 552.001 555.397C546.53 553.37 542.072 546.329 538.438 542C528.001 529.565 511.99 513.632 507 498C528.634 498 560.557 503.933 580 493.359C609.432 477.352 608.208 433.858 579 418.493C566.577 411.958 551.547 414 538 414C510.342 414 481.542 416.339 454 413.941C441.808 412.88 437.339 393.044 426 392.113C422.491 391.826 418.166 395.634 415 397C419.98 407.679 432.712 416.712 441 425C445.623 429.623 450.017 435.21 456 438L456 427L536 427C548.285 427 562.997 424.832 574 431.479C593.324 443.154 592.736 472.023 572 482.084C562.86 486.519 551.858 485 542 485L483 485C491.735 508.997 511.849 528.304 526 549L478 501C471.724 494.724 465.507 485.308 456 485C454.734 476.797 445.605 470.605 440 465L401 426C395.924 420.924 389.744 411.927 383 409.198C376.96 406.753 365.659 410 359 410L359 570L537 570C574.627 570 612.179 572.659 645 550.641C688.827 521.24 705.045 465.198 688.484 416C685.171 406.158 679.922 396.474 673.964 388C671.55 384.567 665.153 379.346 665.012 375C664.906 371.715 668.723 368.388 670.575 366C675.39 359.79 679.806 353.094 683.216 346C693.362 324.893 698.47 299.236 694.565 276C687.189 232.12 653.603 196.498 611 184.745C584.75 177.504 554.96 181 528 181L378 181z"/>
<path style="fill:#6fb2fb; stroke:none;" d="M380.667 182.333L381.333 182.667L380.667 182.333z"/>
<path style="fill:#3191f9; stroke:none;" d="M382.667 182.333L383.333 182.667L382.667 182.333z"/>
<path style="fill:#6fb2fb; stroke:none;" d="M386.667 183.333L387.333 183.667L386.667 183.333z"/>
<path style="fill:#3191f9; stroke:none;" d="M388 183L389 184L388 183z"/>
<path style="fill:#6fb2fb; stroke:none;" d="M390.667 184.333L391.333 184.667L390.667 184.333z"/>
<path style="fill:#3191f9; stroke:none;" d="M392 184L393 185L392 184z"/>
<path style="fill:#6fb2fb; stroke:none;" d="M394 185L395 186L394 185z"/>
<path style="fill:#3191f9; stroke:none;" d="M395 185L396 186L395 185z"/>
<path style="fill:#6fb2fb; stroke:none;" d="M397.667 186.333L398.333 186.667L397.667 186.333M400.667 187.333L401.333 187.667L400.667 187.333M403 188L404 189L403 188z"/>
<path style="fill:#3191f9; stroke:none;" d="M404 188L405 189L404 188z"/>
<path style="fill:#6fb2fb; stroke:none;" d="M406 189L407 190L406 189z"/>
<path style="fill:#3191f9; stroke:none;" d="M407 189L408 190L407 189z"/>
<path style="fill:#6fb2fb; stroke:none;" d="M408 190L409 191L408 190z"/>
<path style="fill:#3191f9; stroke:none;" d="M409 190L410 191L409 190M411 191L412 192L411 191z"/>
<path style="fill:#6fb2fb; stroke:none;" d="M413 192L414 193L413 192z"/>
<path style="fill:#3191f9; stroke:none;" d="M415 193L416 194L415 193z"/>
<path style="fill:#6fb2fb; stroke:none;" d="M170 194L170 195L373 195L354 194L313 194L170 194M417 194L418 195L417 194z"/>
<path style="fill:#3191f9; stroke:none;" d="M418 194L418 195L587 195C574.117 189.594 551.038 194 537 194L418 194M170 195L170 281L170.603 318L187 336L227 375L187 334L171.603 317L171 288L171 223L170 195z"/>
<path style="fill:#0177f7; stroke:none;" d="M171 195L171 281C171 291.665 167.91 307.983 171.603 318C173.356 322.754 178.515 326.515 182 330L206 354C218.01 366.01 231.802 387.373 247 394.972C251.429 397.187 258.177 396 263 396L297 396C345.234 396 399.369 403.825 435.91 364.996C485.872 311.908 463.918 221.741 394 199.344C370.643 191.862 344.213 195 320 195L171 195z"/>
<path style="fill:#3191f9; stroke:none;" d="M376.667 195.333L377.333 195.667L376.667 195.333z"/>
<path style="fill:#6fb2fb; stroke:none;" d="M378 195L378 196L381 196L378 195M593 195L594 196L593 195z"/>
<path style="fill:#3191f9; stroke:none;" d="M594.667 195.333L595.333 195.667L594.667 195.333M382.667 196.333L383.333 196.667L382.667 196.333z"/>
<path style="fill:#6fb2fb; stroke:none;" d="M384.667 196.333L385.333 196.667L384.667 196.333M599 196L600 197L599 196z"/>
<path style="fill:#3191f9; stroke:none;" d="M600 196L601 197L600 196M387 197L388 198L387 197z"/>
<path style="fill:#6fb2fb; stroke:none;" d="M388.667 197.333L389.333 197.667L388.667 197.333M604 197L605 198L604 197z"/>
<path style="fill:#3191f9; stroke:none;" d="M605 197L606 198L605 197z"/>
<path style="fill:#6fb2fb; stroke:none;" d="M174 198L174 199L373 199L354 198L314 198L174 198z"/>
<path style="fill:#3191f9; stroke:none;" d="M373.667 198.333L374.333 198.667L373.667 198.333M391 198L392 199L391 198z"/>
<path style="fill:#6fb2fb; stroke:none;" d="M392 198L393 199L392 198M424 198L424 199L477 199L584 199C571.593 193.794 549.515 198 536 198L424 198M608 198L609 199L608 198z"/>
<path style="fill:#3191f9; stroke:none;" d="M609 198L610 199L609 198z"/>
<path style="fill:#bcddff; stroke:none;" d="M174 199L174 283C174 292.271 170.849 308.643 175.028 317C179.156 325.256 189.514 332.514 196 339L232 375C237.06 380.06 242.538 387.741 249 390.972C253.429 393.187 260.176 392 265 392L299 392C347.782 392 398.577 399.318 435.05 359.961C483.281 307.915 456.665 221.806 390 202.036C367.632 195.403 341.111 199 318 199L174 199z"/>
<path style="fill:#6fb2fb; stroke:none;" d="M377 199L377 200L380 200L377 199z"/>
<path style="fill:#3191f9; stroke:none;" d="M380.667 199.333L381.333 199.667L380.667 199.333M394 199L395 200L394 199z"/>
<path style="fill:#6fb2fb; stroke:none;" d="M395 199L396 200L395 199z"/>
<path style="fill:#0177f7; stroke:none;" d="M426 199L426 200C438.413 207.141 449.681 219.19 457.642 231C460.731 235.583 464.72 248.057 470.213 249.682C476.828 251.639 486.115 250 493 250C525.572 250 576.338 239.635 597.48 271C613.715 295.085 603.667 329.309 576 339.935C555.994 347.619 531.077 344 510 344C496.035 344 479.881 346.984 468 339C462.303 358.775 445.442 375.467 430 388L430 389C435.863 394.863 443.11 405.488 451 408.397C458.975 411.337 471.533 409 480 409L540 409C553.518 409 567.566 408.068 580 414.373C612.854 431.035 614.473 477.335 583 496.37C564.046 507.833 536.237 503 515 503C520.029 516.074 532.354 528.33 541.247 539C544.771 543.229 548.622 549.413 554 551.397C560.438 553.771 570.186 552 577 552C609.865 552 639.73 539.088 659.511 512C681.669 481.657 682.512 439.435 664.688 407C660.245 398.914 654.466 391.548 647.996 385C645.613 382.588 640.056 378.766 640.056 375C640.056 371.218 645.606 367.463 647.961 365C654.055 358.626 659.533 351.611 663.988 344C675.62 324.131 678.576 301.704 676.91 279C674.403 244.839 643.196 213.756 612 203.746C589.591 196.556 565.2 199 542 199L426 199z"/>
<path style="fill:#3191f9; stroke:none;" d="M592 199L593 200L592 199z"/>
<path style="fill:#6fb2fb; stroke:none;" d="M593.667 199.333L594.333 199.667L593.667 199.333M612 199L613 200L612 199M383.667 200.333L384.333 200.667L383.667 200.333z"/>
<path style="fill:#3191f9; stroke:none;" d="M385 200L386 201L385 200M397 200L398 201L397 200z"/>
<path style="fill:#6fb2fb; stroke:none;" d="M398 200L399 201L398 200z"/>
<path style="fill:#3191f9; stroke:none;" d="M427 200L428 201L427 200M598 200L599 201L598 200z"/>
<path style="fill:#6fb2fb; stroke:none;" d="M599.667 200.333L600.333 200.667L599.667 200.333M615 200L616 201L615 200M388 201L389 202L388 201z"/>
<path style="fill:#3191f9; stroke:none;" d="M389 201L390 202L389 201M400 201L401 202L400 201z"/>
<path style="fill:#6fb2fb; stroke:none;" d="M401 201L402 202L401 201M428 201L429 202L428 201z"/>
<path style="fill:#3191f9; stroke:none;" d="M603.667 201.333L604.333 201.667L603.667 201.333z"/>
<path style="fill:#6fb2fb; stroke:none;" d="M605 201L606 202L605 201M617 201L618 202L617 201z"/>
<path style="fill:#3191f9; stroke:none;" d="M618 201L619 202L618 201z"/>
<path style="fill:#6fb2fb; stroke:none;" d="M391.667 202.333L392.333 202.667L391.667 202.333z"/>
<path style="fill:#3191f9; stroke:none;" d="M402 202L403 203L402 202z"/>
<path style="fill:#6fb2fb; stroke:none;" d="M403 202L404 203L403 202z"/>
<path style="fill:#3191f9; stroke:none;" d="M430 202L431 203L430 202M607 202L608 203L607 202z"/>
<path style="fill:#6fb2fb; stroke:none;" d="M608 202L609 203L608 202z"/>
<path style="fill:#3191f9; stroke:none;" d="M620 202L621 203L620 202z"/>
<path style="fill:#6fb2fb; stroke:none;" d="M394.667 203.333L395.333 203.667L394.667 203.333M405 203L406 204L405 203z"/>
<path style="fill:#3191f9; stroke:none;" d="M431 203L432 204L431 203z"/>
<path style="fill:#6fb2fb; stroke:none;" d="M611 203L612 204L611 203M622 203L623 204L622 203M397 204L398 205L397 204z"/>
<path style="fill:#3191f9; stroke:none;" d="M398 204L399 205L398 204z"/>
<path style="fill:#6fb2fb; stroke:none;" d="M407 204L408 205L407 204M432 204L433 205L432 204M614 204L615 205L614 204M624 204L625 205L624 204M400 205L401 206L400 205M409 205L410 206L409 205z"/>
<path style="fill:#3191f9; stroke:none;" d="M616 205L617 206L616 205z"/>
<path style="fill:#6fb2fb; stroke:none;" d="M617 205L618 206L617 205M626 205L627 206L626 205M402 206L403 207L402 206z"/>
<path style="fill:#3191f9; stroke:none;" d="M403 206L404 207L403 206z"/>
<path style="fill:#6fb2fb; stroke:none;" d="M411 206L412 207L411 206z"/>
<path style="fill:#3191f9; stroke:none;" d="M435 206L436 207L435 206M619 206L620 207L619 206z"/>
<path style="fill:#6fb2fb; stroke:none;" d="M628 206L629 207L628 206z"/>
<path style="fill:#3191f9; stroke:none;" d="M629 206L630 207L629 206z"/>
<path style="fill:#6fb2fb; stroke:none;" d="M404 207L405 208L404 207z"/>
<path style="fill:#3191f9; stroke:none;" d="M405 207L406 208L405 207z"/>
<path style="fill:#6fb2fb; stroke:none;" d="M413 207L414 208L413 207z"/>
<path style="fill:#3191f9; stroke:none;" d="M436 207L437 208L436 207M621 207L622 208L621 207z"/>
<path style="fill:#6fb2fb; stroke:none;" d="M630 207L631 208L630 207M406 208L407 209L406 208z"/>
<path style="fill:#3191f9; stroke:none;" d="M407 208L408 209L407 208M414 208L415 209L414 208z"/>
<path style="fill:#6fb2fb; stroke:none;" d="M415 208L416 209L415 208M437 208L438 209L437 208z"/>
<path style="fill:#3191f9; stroke:none;" d="M623 208L624 209L623 208z"/>
<path style="fill:#6fb2fb; stroke:none;" d="M632 208L633 209L632 208M408 209L409 210L408 209z"/>
<path style="fill:#3191f9; stroke:none;" d="M409 209L410 210L409 209z"/>
<path style="fill:#6fb2fb; stroke:none;" d="M416 209L417 210L416 209M438 209L439 210L438 209z"/>
<path style="fill:#3191f9; stroke:none;" d="M625 209L626 210L625 209M634 209L635 210L634 209z"/>
<path style="fill:#6fb2fb; stroke:none;" d="M410 210L411 211L410 210M418 210L419 211L418 210M439 210L440 211L439 210z"/>
<path style="fill:#3191f9; stroke:none;" d="M627 210L628 211L627 210z"/>
<path style="fill:#6fb2fb; stroke:none;" d="M635 210L636 211L635 210M412 211L413 212L412 211M419 211L420 212L419 211M440 211L441 212L440 211M629 211L630 212L629 211z"/>
<path style="fill:#3191f9; stroke:none;" d="M637 211L638 212L637 211M414 212L415 213L414 212z"/>
<path style="fill:#6fb2fb; stroke:none;" d="M421 212L422 213L421 212M638 212L639 213L638 212M415 213L416 214L415 213M422 213L423 214L422 213z"/>
<path style="fill:#3191f9; stroke:none;" d="M632 213L633 214L632 213z"/>
<path style="fill:#6fb2fb; stroke:none;" d="M417 214L418 215L417 214z"/>
<path style="fill:#3191f9; stroke:none;" d="M423 214L424 215L423 214M444 214L445 215L444 214z"/>
<path style="fill:#6fb2fb; stroke:none;" d="M634 214L635 215L634 214z"/>
<path style="fill:#3191f9; stroke:none;" d="M641 214L642 215L641 214z"/>
<path style="fill:#6fb2fb; stroke:none;" d="M418 215L419 216L418 215M425 215L426 216L425 215z"/>
<path style="fill:#3191f9; stroke:none;" d="M635 215L636 216L635 215z"/>
<path style="fill:#6fb2fb; stroke:none;" d="M642 215L643 216L642 215z"/>
<path style="fill:#3191f9; stroke:none;" d="M420 216L421 217L420 216z"/>
<path style="fill:#6fb2fb; stroke:none;" d="M426 216L427 217L426 216M637 216L638 217L637 216M421 217L422 218L421 217z"/>
<path style="fill:#3191f9; stroke:none;" d="M427 217L428 218L427 217M638 217L639 218L638 217M645 217L646 218L645 217z"/>
<path style="fill:#6fb2fb; stroke:none;" d="M422 218L423 219L422 218z"/>
<path style="fill:#3191f9; stroke:none;" d="M428 218L429 219L428 218z"/>
<path style="fill:#6fb2fb; stroke:none;" d="M447 218L448 219L447 218M640 218L641 219L640 218z"/>
<path style="fill:#3191f9; stroke:none;" d="M646 218L647 219L646 218M424 219L425 220L424 219M429 219L430 220L429 219z"/>
<path style="fill:#6fb2fb; stroke:none;" d="M430 219L431 220L430 219M448 219L449 220L448 219z"/>
<path style="fill:#3191f9; stroke:none;" d="M641 219L642 220L641 219z"/>
<path style="fill:#6fb2fb; stroke:none;" d="M647 219L648 220L647 219z"/>
<path style="fill:#3191f9; stroke:none;" d="M425 220L426 221L425 220z"/>
<path style="fill:#6fb2fb; stroke:none;" d="M431 220L432 221L431 220M449 220L450 221L449 220z"/>
<path style="fill:#3191f9; stroke:none;" d="M642 220L643 221L642 220z"/>
<path style="fill:#6fb2fb; stroke:none;" d="M648 220L649 221L648 220M426 221L427 222L426 221M432 221L433 222L432 221z"/>
<path style="fill:#3191f9; stroke:none;" d="M450 221L451 222L450 221M643 221L644 222L643 221z"/>
<path style="fill:#6fb2fb; stroke:none;" d="M427 222L428 223L427 222M433 222L434 223L433 222z"/>
<path style="fill:#3191f9; stroke:none;" d="M451 222L452 223L451 222z"/>
<path style="fill:#6fb2fb; stroke:none;" d="M428 223L429 224L428 223M434 223L435 224L434 223M429 224L430 225L429 224M435 224L436 225L435 224M647 224L648 225L647 224M430 225L431 226L430 225M436 225L437 226L436 225M453 225L454 226L453 225M648 225L649 226L648 225M431 226L432 227L431 226M437 226L438 227L437 226M454 226L455 227L454 226M649 226L650 227L649 226M432 227L433 228L432 227M438 227L439 228L438 227z"/>
<path style="fill:#3191f9; stroke:none;" d="M455 227L456 228L455 227z"/>
<path style="fill:#6fb2fb; stroke:none;" d="M650 227L651 228L650 227M433 228L434 229L433 228M651 228L652 229L651 228M434 229L435 230L434 229z"/>
<path style="fill:#3191f9; stroke:none;" d="M439 229L440 230L439 229z"/>
<path style="fill:#6fb2fb; stroke:none;" d="M456 229L457 230L456 229M652 229L653 230L652 229M657 229L658 230L657 229M435 230L436 231L435 230z"/>
<path style="fill:#3191f9; stroke:none;" d="M440 230L441 231L440 230M457 230L458 231L457 230z"/>
<path style="fill:#6fb2fb; stroke:none;" d="M653 230L654 231L653 230M658 230L659 231L658 230M436 231L437 232L436 231M441 231L442 232L441 231z"/>
<path style="fill:#3191f9; stroke:none;" d="M659 231L660 232L659 231z"/>
<path style="fill:#6fb2fb; stroke:none;" d="M437 232L438 233L437 232M442 232L443 233L442 232M458 232L459 233L458 232z"/>
<path style="fill:#3191f9; stroke:none;" d="M660 232L661 233L660 232M438 233L439 234L438 233z"/>
<path style="fill:#6fb2fb; stroke:none;" d="M443 233L444 234L443 233z"/>
<path style="fill:#3191f9; stroke:none;" d="M459 233L460 234L459 233M655 233L656 234L655 233M661 233L662 234L661 233M443 234L444 235L443 234z"/>
<path style="fill:#6fb2fb; stroke:none;" d="M459 234L460 235L459 234z"/>
<path style="fill:#3191f9; stroke:none;" d="M656 234L657 235L656 234z"/>
<path style="fill:#6fb2fb; stroke:none;" d="M439 235L440 236L439 235M444 235L445 236L444 235z"/>
<path style="fill:#3191f9; stroke:none;" d="M460 235L461 236L460 235z"/>
<path style="fill:#6fb2fb; stroke:none;" d="M657 235L658 236L657 235M662 235L663 236L662 235M440 236L441 237L440 236M445 236L446 237L445 236M658 236L659 237L658 236z"/>
<path style="fill:#3191f9; stroke:none;" d="M663 236L664 237L663 236M441 237L442 238L441 237z"/>
<path style="fill:#6fb2fb; stroke:none;" d="M461 237L462 238L461 237z"/>
<path style="fill:#3191f9; stroke:none;" d="M446 238L447 239L446 238M462 238L463 239L462 238M659 238L660 239L659 238z"/>
<path style="fill:#6fb2fb; stroke:none;" d="M442 239L443 240L442 239M447 239L448 240L447 239M462 239L463 240L462 239M660 239L661 240L660 239M665 239L666 240L665 239M443 240L444 241L443 240z"/>
<path style="fill:#3191f9; stroke:none;" d="M463 240L464 241L463 240M444 241L445 242L444 241M448 241L449 242L448 241z"/>
<path style="fill:#6fb2fb; stroke:none;" d="M444 242L445 243L444 242M449 242L450 243L449 242z"/>
<path style="fill:#3191f9; stroke:none;" d="M464 242L465 243L464 242M662 242L663 243L662 242M667 242L668 243L667 242z"/>
<path style="fill:#6fb2fb; stroke:none;" d="M445 243L446 244L445 243z"/>
<path style="fill:#3191f9; stroke:none;" d="M449 243L450 244L449 243z"/>
<path style="fill:#6fb2fb; stroke:none;" d="M450 244L451 245L450 244z"/>
<path style="fill:#3191f9; stroke:none;" d="M465 244L466 245L465 244z"/>
<path style="fill:#6fb2fb; stroke:none;" d="M668 244L669 245L668 244z"/>
<path style="fill:#0177f7; stroke:none;" d="M236 245C236 255.022 232.523 272.99 237.028 282C240.619 289.181 249.369 295.369 255 301L286 332C290.16 336.16 295.051 343.191 301 344.682C307.66 346.352 316.149 345 323 345C342.824 345 361.715 345.72 377.961 332.331C403.178 311.549 397.929 268.966 371 252.468C353.718 241.88 331.354 245 312 245L236 245z"/>
<path style="fill:#3191f9; stroke:none;" d="M349.667 245.333L350.333 245.667L349.667 245.333z"/>
<path style="fill:#6fb2fb; stroke:none;" d="M351 245L351 246L354 246L351 245M446 245L447 246L446 245M664 245L665 246L664 245z"/>
<path style="fill:#3191f9; stroke:none;" d="M356 246L357 247L356 246z"/>
<path style="fill:#6fb2fb; stroke:none;" d="M357 246L358 247L357 246z"/>
<path style="fill:#3191f9; stroke:none;" d="M447 246L448 247L447 246M451 246L452 247L451 246M466 246L467 247L466 246z"/>
<path style="fill:#6fb2fb; stroke:none;" d="M360 247L361 248L360 247M447 247L448 248L447 247M466 247L467 248L466 247z"/>
<path style="fill:#3191f9; stroke:none;" d="M665 247L666 248L665 247M670 247L671 248L670 247M273 314L241.028 280L240 249L348 249L323 248L266 248L240.603 249.028L239 265L239.603 280L250 292L273 314M362 248L363 249L362 248z"/>
<path style="fill:#6fb2fb; stroke:none;" d="M363 248L364 249L363 248z"/>
<path style="fill:#3191f9; stroke:none;" d="M448 248L449 249L448 248M452 248L453 249L452 248M467 248L468 249L467 248z"/>
<path style="fill:#6fb2fb; stroke:none;" d="M666 248L667 249L666 248z"/>
<path style="fill:#bcddff; stroke:none;" d="M240 249C240 257.804 237.058 273.061 241.028 281C244.619 288.181 253.369 294.369 259 300L288 329C291.916 332.916 296.392 339.276 302 340.682C308.66 342.352 317.149 341 324 341C343.136 341 360.159 341.833 375.829 328.985C399.771 309.356 393.245 270.089 368 255.093C351.668 245.392 329.185 249 311 249L240 249z"/>
<path style="fill:#6fb2fb; stroke:none;" d="M351 249L351 250L354 250L351 249z"/>
<path style="fill:#3191f9; stroke:none;" d="M354 249L355 250L354 249z"/>
<path style="fill:#6fb2fb; stroke:none;" d="M365 249L366 250L365 249M467 249L468 250L467 249z"/>
<path style="fill:#3191f9; stroke:none;" d="M671 249L672 250L671 249z"/>
<path style="fill:#6fb2fb; stroke:none;" d="M356.667 250.333L357.333 250.667L356.667 250.333z"/>
<path style="fill:#3191f9; stroke:none;" d="M358 250L359 251L358 250M367 250L368 251L367 250M449 250L450 251L449 250M453 250L454 251L453 250z"/>
<path style="fill:#6fb2fb; stroke:none;" d="M468 250L468 251L563 251L534 250L468 250z"/>
<path style="fill:#3191f9; stroke:none;" d="M563.667 250.333L564.333 250.667L563.667 250.333z"/>
<path style="fill:#6fb2fb; stroke:none;" d="M667 250L668 251L667 250M360 251L361 252L360 251M369 251L370 252L369 251M568 251L569 252L568 251z"/>
<path style="fill:#3191f9; stroke:none;" d="M569 251L570 252L569 251M672 251L673 252L672 251z"/>
<path style="fill:#6fb2fb; stroke:none;" d="M362 252L363 253L362 252z"/>
<path style="fill:#3191f9; stroke:none;" d="M363 252L364 253L363 252z"/>
<path style="fill:#6fb2fb; stroke:none;" d="M371 252L372 253L371 252M450 252L451 253L450 252z"/>
<path style="fill:#3191f9; stroke:none;" d="M454 252L455 253L454 252M573 252L574 253L573 252z"/>
<path style="fill:#6fb2fb; stroke:none;" d="M668 252L669 253L668 252z"/>
<path style="fill:#3191f9; stroke:none;" d="M365 253L366 254L365 253M372 253L373 254L372 253z"/>
<path style="fill:#6fb2fb; stroke:none;" d="M575 253L576 254L575 253z"/>
<path style="fill:#3191f9; stroke:none;" d="M673 253L674 254L673 253M367 254L368 255L367 254z"/>
<path style="fill:#6fb2fb; stroke:none;" d="M374 254L375 255L374 254z"/>
<path style="fill:#3191f9; stroke:none;" d="M451 254L452 255L451 254z"/>
<path style="fill:#6fb2fb; stroke:none;" d="M455 254L456 255L455 254z"/>
<path style="fill:#3191f9; stroke:none;" d="M470 256L502 255L560 255C553.806 252.401 544.686 254 538 254L491 254C485.627 254 473.702 251.764 470 256z"/>
<path style="fill:#6fb2fb; stroke:none;" d="M560 254L560 255L564 255L560 254z"/>
<path style="fill:#3191f9; stroke:none;" d="M578 254L579 255L578 254z"/>
<path style="fill:#6fb2fb; stroke:none;" d="M669 254L670 255L669 254M368 255L369 256L368 255M375 255L376 256L375 255M451 255L452 256L451 255z"/>
<path style="fill:#0177f7; stroke:none;" d="M471 255L474 268L545 268C558.223 268 570.951 267.146 580.532 278.09C593.43 292.821 587.975 315.37 570 323.12C561.486 326.79 552.041 326 543 326C522.515 326 492.054 331.812 475 320C473.156 324.817 468.953 333.454 474.152 337.397C479.668 341.58 493.34 339 500 339C523.076 339 556.88 345.183 578 334.623C608.135 319.556 608.728 273.97 578 258.981C566.245 253.247 552.693 255 540 255L471 255z"/>
<path style="fill:#3191f9; stroke:none;" d="M568 255L569 256L568 255z"/>
<path style="fill:#6fb2fb; stroke:none;" d="M569 255L570 256L569 255z"/>
<path style="fill:#3191f9; stroke:none;" d="M580 255L581 256L580 255M674 255L675 256L674 255z"/>
<path style="fill:#6fb2fb; stroke:none;" d="M370 256L371 257L370 256z"/>
<path style="fill:#3191f9; stroke:none;" d="M376 256L377 257L376 256M452 256L453 257L452 256z"/>
<path style="fill:#6fb2fb; stroke:none;" d="M456 256L457 257L456 256M470 256L471 257L470 256z"/>
<path style="fill:#3191f9; stroke:none;" d="M571 256L572 257L571 256z"/>
<path style="fill:#6fb2fb; stroke:none;" d="M572 256L573 257L572 256z"/>
<path style="fill:#3191f9; stroke:none;" d="M582 256L583 257L582 256z"/>
<path style="fill:#6fb2fb; stroke:none;" d="M670 256L671 257L670 256M674 256L675 257L674 256M371 257L372 258L371 257z"/>
<path style="fill:#3191f9; stroke:none;" d="M377 257L378 258L377 257z"/>
<path style="fill:#6fb2fb; stroke:none;" d="M452 257L453 258L452 257z"/>
<path style="fill:#3191f9; stroke:none;" d="M456 257L457 258L456 257M574 257L575 258L574 257z"/>
<path style="fill:#6fb2fb; stroke:none;" d="M575 257L576 258L575 257M583 257L584 258L583 257z"/>
<path style="fill:#3191f9; stroke:none;" d="M670 257L671 258L670 257M373 258L374 259L373 258z"/>
<path style="fill:#6fb2fb; stroke:none;" d="M379 258L380 259L379 258M457.333 258.667L457.667 259.333L457.333 258.667z"/>
<path style="fill:#3191f9; stroke:none;" d="M471 258L472 259L471 258z"/>
<path style="fill:#6fb2fb; stroke:none;" d="M577 258L578 259L577 258z"/>
<path style="fill:#3191f9; stroke:none;" d="M585 258L586 259L585 258M675 258L676 259L675 258z"/>
<path style="fill:#6fb2fb; stroke:none;" d="M374 259L375 260L374 259M380 259L381 260L380 259M453 259L454 260L453 259M471 259L472 260L471 259M579 259L580 260L579 259M586 259L587 260L586 259z"/>
<path style="fill:#3191f9; stroke:none;" d="M671 259L672 260L671 259z"/>
<path style="fill:#6fb2fb; stroke:none;" d="M375 260L376 261L375 260M381 260L382 261L381 260z"/>
<path style="fill:#3191f9; stroke:none;" d="M580 260L581 261L580 260M588 260L589 261L588 260z"/>
<path style="fill:#6fb2fb; stroke:none;" d="M376 261L377 262L376 261M382 261L383 262L382 261z"/>
<path style="fill:#3191f9; stroke:none;" d="M454 261L455 262L454 261z"/>
<path style="fill:#6fb2fb; stroke:none;" d="M458 261L459 262L458 261z"/>
<path style="fill:#3191f9; stroke:none;" d="M472 261L473 262L472 261M582 261L583 262L582 261M589 261L590 262L589 261z"/>
<path style="fill:#6fb2fb; stroke:none;" d="M672 261L673 262L672 261M676 261L677 262L676 261z"/>
<path style="fill:#010101; stroke:none;" d="M253 262C253 283.069 274.868 296.868 289 311C294.067 316.067 300.142 324.868 307 327.397C317.026 331.093 333.32 328 344 328L298 281L278 262.603L253 262z"/>
<path style="fill:#0177f7; stroke:none;" d="M279 262C292.241 280.797 312.733 296.733 329 313C333.728 317.728 340.578 328.025 348 327.502C356.218 326.924 367.17 321.593 370.972 314C373.074 309.803 372 303.566 372 299C372 285.428 374.299 271.927 359 266L359 321C340.409 309.581 322.821 296.643 306 282.75C298.26 276.357 288.669 264.713 279 262z"/>
<path style="fill:#010101; stroke:none;" d="M282 262C287.868 270.261 297.233 276.335 305 282.75C321.289 296.204 339.455 312.567 359 321L359 282C359 277.758 360.454 270.094 357.972 266.43C354.773 261.705 343.06 262.025 338 262.001C319.334 261.911 300.666 262 282 262z"/>
<path style="fill:#6fb2fb; stroke:none;" d="M377 262L378 263L377 262z"/>
<path style="fill:#3191f9; stroke:none;" d="M382 262L383 263L382 262z"/>
<path style="fill:#6fb2fb; stroke:none;" d="M454 262L455 263L454 262z"/>
<path style="fill:#3191f9; stroke:none;" d="M458 262L459 263L458 262z"/>
<path style="fill:#6fb2fb; stroke:none;" d="M472 262L473 263L472 262z"/>
<path style="fill:#3191f9; stroke:none;" d="M590 262L591 263L590 262M672 262L673 263L672 262z"/>
<path style="fill:#6fb2fb; stroke:none;" d="M378 263L379 264L378 263z"/>
<path style="fill:#3191f9; stroke:none;" d="M383 263L384 264L383 263z"/>
<path style="fill:#6fb2fb; stroke:none;" d="M585 263L586 264L585 263M591 263L592 264L591 263z"/>
<path style="fill:#3191f9; stroke:none;" d="M677 263L678 264L677 263z"/>
<path style="fill:#6fb2fb; stroke:none;" d="M379 264L380 265L379 264M384 264L385 265L384 264z"/>
<path style="fill:#3191f9; stroke:none;" d="M455 264L456 265L455 264z"/>
<path style="fill:#6fb2fb; stroke:none;" d="M459 264L460 265L459 264z"/>
<path style="fill:#3191f9; stroke:none;" d="M473.333 264.667L473.667 265.333L473.333 264.667z"/>
<path style="fill:#6fb2fb; stroke:none;" d="M586 264L587 265L586 264z"/>
<path style="fill:#3191f9; stroke:none;" d="M592 264L593 265L592 264z"/>
<path style="fill:#6fb2fb; stroke:none;" d="M673 264L674 265L673 264M677 264L678 265L677 264M359 265L360 266L359 265M380 265L381 266L380 265M385 265L386 266L385 265M455 265L456 266L455 265z"/>
<path style="fill:#3191f9; stroke:none;" d="M459 265L460 266L459 265M587 265L588 266L587 265M593 265L594 266L593 265z"/>
<path style="fill:#6fb2fb; stroke:none;" d="M361 266L362 267L361 266z"/>
<path style="fill:#3191f9; stroke:none;" d="M381 266L382 267L381 266z"/>
<path style="fill:#6fb2fb; stroke:none;" d="M473 266L474 267L473 266z"/>
<path style="fill:#3191f9; stroke:none;" d="M588 266L589 267L588 266M594 266L595 267L594 266M678 266L679 267L678 266M362 267L363 268L362 267z"/>
<path style="fill:#6fb2fb; stroke:none;" d="M363 267L364 268L363 267z"/>
<path style="fill:#3191f9; stroke:none;" d="M386 267L387 268L386 267M456 267L457 268L456 267z"/>
<path style="fill:#6fb2fb; stroke:none;" d="M460.333 267.667L460.667 268.333L460.333 267.667z"/>
<path style="fill:#3191f9; stroke:none;" d="M589 267L590 268L589 267z"/>
<path style="fill:#6fb2fb; stroke:none;" d="M674 267L675 268L674 267M678 267L679 268L678 267M364 268L365 269L364 268M382 268L383 269L382 268M387 268L388 269L387 268M456 268L457 269L456 268z"/>
<path style="fill:#010101; stroke:none;" d="M475 268C475.558 280.987 477.598 292.919 476.961 306C476.713 311.095 473.808 317.501 477.333 321.941C482.737 328.748 496.268 326 504 326C525.598 326 564.854 333.707 580.815 315.985C596.453 298.62 584.536 269.109 561 268.039C549.381 267.511 537.631 268 526 268L475 268z"/>
<path style="fill:#3191f9; stroke:none;" d="M590 268L591 269L590 268M674 268L675 269L674 268M365 269L366 270L365 269z"/>
<path style="fill:#6fb2fb; stroke:none;" d="M383 269L384 270L383 269z"/>
<path style="fill:#3191f9; stroke:none;" d="M460 269L461 270L460 269z"/>
<path style="fill:#6fb2fb; stroke:none;" d="M591 269L592 270L591 269M596 269L597 270L596 269z"/>
<path style="fill:#3191f9; stroke:none;" d="M679 269L680 270L679 269M366 270L367 271L366 270z"/>
<path style="fill:#6fb2fb; stroke:none;" d="M388 270L389 271L388 270M592 270L593 271L592 270z"/>
<path style="fill:#3191f9; stroke:none;" d="M597 270L598 271L597 270z"/>
<path style="fill:#6fb2fb; stroke:none;" d="M675 270L676 271L675 270M679 270L680 271L679 270z"/>
<path style="fill:#3191f9; stroke:none;" d="M367 271L368 272L367 271z"/>
<path style="fill:#6fb2fb; stroke:none;" d="M384 271L385 272L384 271z"/>
<path style="fill:#3191f9; stroke:none;" d="M457 271L458 272L457 271z"/>
<path style="fill:#6fb2fb; stroke:none;" d="M461 271L462 272L461 271z"/>
<path style="fill:#3191f9; stroke:none;" d="M675 271L676 272L675 271M368 272L369 273L368 272M385 272L386 273L385 272M389 272L390 273L389 272z"/>
<path style="fill:#6fb2fb; stroke:none;" d="M457.333 272.667L457.667 273.333L457.333 272.667z"/>
<path style="fill:#3191f9; stroke:none;" d="M461 272L461 275L462 275L461 272M593 272L594 273L593 272z"/>
<path style="fill:#6fb2fb; stroke:none;" d="M598 272L599 273L598 272z"/>
<path style="fill:#3191f9; stroke:none;" d="M369 273L370 274L369 273z"/>
<path style="fill:#6fb2fb; stroke:none;" d="M594 273L595 274L594 273z"/>
<path style="fill:#3191f9; stroke:none;" d="M680 273L681 274L680 273M370 274L371 275L370 274M386 274L387 275L386 274z"/>
<path style="fill:#6fb2fb; stroke:none;" d="M390 274L391 275L390 274M676 274L677 275L676 274M680 274L681 275L680 274M371 275L372 276L371 275z"/>
<path style="fill:#3191f9; stroke:none;" d="M595 275L596 276L595 275M600 275L601 276L600 275M676 275L677 276L676 275M387 276L388 277L387 276z"/>
<path style="fill:#6fb2fb; stroke:none;" d="M391 276L392 277L391 276z"/>
<path style="fill:#3191f9; stroke:none;" d="M458 276L459 277L458 276z"/>
<path style="fill:#6fb2fb; stroke:none;" d="M462.333 276.667L462.667 277.333L462.333 276.667M596 276L597 277L596 276M372 277L372 313L373 313C373 302.613 376.011 286.56 372 277M387 277L388 278L387 277z"/>
<path style="fill:#3191f9; stroke:none;" d="M391 277L392 278L391 277z"/>
<path style="fill:#6fb2fb; stroke:none;" d="M458.333 277.667L458.667 278.333L458.333 277.667z"/>
<path style="fill:#3191f9; stroke:none;" d="M601 277L602 278L601 277M462.333 278.667L462.667 279.333L462.333 278.667M681 278L682 279L681 278M388 279L389 280L388 279z"/>
<path style="fill:#6fb2fb; stroke:none;" d="M392 279L393 280L392 279z"/>
<path style="fill:#3191f9; stroke:none;" d="M597 279L598 280L597 279z"/>
<path style="fill:#6fb2fb; stroke:none;" d="M677 279L678 280L677 279M681 279L681 301L682 301L681 279M388 280L389 281L388 280z"/>
<path style="fill:#3191f9; stroke:none;" d="M392 280L393 281L392 280z"/>
<path style="fill:#6fb2fb; stroke:none;" d="M602 280L603 281L602 280z"/>
<path style="fill:#3191f9; stroke:none;" d="M677 280L677 298L678 298L677 280M459 281L460 282L459 281z"/>
<path style="fill:#6fb2fb; stroke:none;" d="M598 281L599 282L598 281z"/>
<path style="fill:#3191f9; stroke:none;" d="M236 282L237 283L236 282M389 282L390 283L389 282z"/>
<path style="fill:#6fb2fb; stroke:none;" d="M459 282L459 287L460 287L459 282M463 282L463 287L464 287L463 282z"/>
<path style="fill:#3191f9; stroke:none;" d="M603 282L604 283L603 282M237 283L238 284L237 283z"/>
<path style="fill:#6fb2fb; stroke:none;" d="M389.333 283.667L389.667 284.333L389.333 283.667M393 283L394 284L393 283M603 283L604 284L603 283z"/>
<path style="fill:#3191f9; stroke:none;" d="M238 284L239 285L238 284M393.333 284.667L393.667 285.333L393.333 284.667M599 284L600 285L599 284M239 285L240 286L239 285z"/>
<path style="fill:#6fb2fb; stroke:none;" d="M376.333 285.667L376.667 286.333L376.333 285.667z"/>
<path style="fill:#3191f9; stroke:none;" d="M240 286L241 287L240 286M390.333 286.667L390.667 287.333L390.333 286.667M604 286L605 287L604 286M241 287L242 288L241 287M376 287L376 303L377 303L376 287z"/>
<path style="fill:#6fb2fb; stroke:none;" d="M394 287L394 290L395 290L394 287z"/>
<path style="fill:#3191f9; stroke:none;" d="M463 287L463 291L464 291L463 287z"/>
<path style="fill:#6fb2fb; stroke:none;" d="M600 287L601 288L600 287M604.333 287.667L604.667 288.333L604.333 287.667z"/>
<path style="fill:#3191f9; stroke:none;" d="M242 288L243 289L242 288z"/>
<path style="fill:#6fb2fb; stroke:none;" d="M390 288L390 291L391 291L390 288z"/>
<path style="fill:#3191f9; stroke:none;" d="M600.333 288.667L600.667 289.333L600.333 288.667M243 289L244 290L243 289z"/>
<path style="fill:#6fb2fb; stroke:none;" d="M377.333 289.667L377.667 290.333L377.333 289.667z"/>
<path style="fill:#3191f9; stroke:none;" d="M244 290L245 291L244 290M394 290L394 300L395 300L394 290M245 291L246 292L245 291M246 292L247 293L246 292M460 292L460 296L461 296L460 292M605 292L605 295L606 295L605 292M247 293L248 294L247 293z"/>
<path style="fill:#6fb2fb; stroke:none;" d="M601 293L601 296L602 296L601 293z"/>
<path style="fill:#3191f9; stroke:none;" d="M248 294L249 295L248 294M249 295L250 296L249 295z"/>
<path style="fill:#6fb2fb; stroke:none;" d="M605 295L605 300L606 300L605 295z"/>
<path style="fill:#3191f9; stroke:none;" d="M250 296L251 297L250 296M601.333 296.667L601.667 297.333L601.333 296.667M251 297L252 298L251 297M463 297L463 303L464 303L463 297M252 298L253 299L252 298z"/>
<path style="fill:#6fb2fb; stroke:none;" d="M601 298L601 302L602 302L601 298M677 298L677 303L678 303L677 298z"/>
<path style="fill:#3191f9; stroke:none;" d="M253 299L254 300L253 299z"/>
<path style="fill:#6fb2fb; stroke:none;" d="M377 299L377 302L378 302L377 299z"/>
<path style="fill:#3191f9; stroke:none;" d="M254 300L255 301L254 300z"/>
<path style="fill:#6fb2fb; stroke:none;" d="M390 300L390 303L391 303L390 300M394 300L394 304L395 304L394 300z"/>
<path style="fill:#3191f9; stroke:none;" d="M605.333 300.667L605.667 301.333L605.333 300.667M255 301L256 302L255 301M681 301L681 304L682 304L681 301M256 302L257 303L256 302M257 303L258 304L257 303z"/>
<path style="fill:#6fb2fb; stroke:none;" d="M376.333 303.667L376.667 304.333L376.333 303.667z"/>
<path style="fill:#3191f9; stroke:none;" d="M390 303L391 304L390 303z"/>
<path style="fill:#6fb2fb; stroke:none;" d="M459 303L459 307L460 307L459 303M463 303L463 307L464 307L463 303z"/>
<path style="fill:#3191f9; stroke:none;" d="M258 304L259 305L258 304M259 305L260 306L259 305M393 305L394 306L393 305M600 305L601 306L600 305M260 306L261 307L260 306z"/>
<path style="fill:#6fb2fb; stroke:none;" d="M389 306L390 307L389 306M393.333 306.667L393.667 307.333L393.333 306.667M600 306L601 307L600 306M604 306L605 307L604 306z"/>
<path style="fill:#3191f9; stroke:none;" d="M261 307L262 308L261 307M389 307L390 308L389 307M459.333 307.667L459.667 308.333L459.333 307.667M604 307L605 308L604 307M676.333 307.667L676.667 308.333L676.333 307.667M262 308L263 309L262 308z"/>
<path style="fill:#6fb2fb; stroke:none;" d="M680.333 308.667L680.667 309.333L680.333 308.667z"/>
<path style="fill:#3191f9; stroke:none;" d="M263 309L264 310L263 309z"/>
<path style="fill:#6fb2fb; stroke:none;" d="M388.333 309.667L388.667 310.333L388.333 309.667z"/>
<path style="fill:#3191f9; stroke:none;" d="M392 309L393 310L392 309M462.333 309.667L462.667 310.333L462.333 309.667M599 309L600 310L599 309z"/>
<path style="fill:#6fb2fb; stroke:none;" d="M676.333 309.667L676.667 310.333L676.333 309.667z"/>
<path style="fill:#3191f9; stroke:none;" d="M264 310L265 311L264 310z"/>
<path style="fill:#6fb2fb; stroke:none;" d="M392 310L393 311L392 310M603 310L604 311L603 310z"/>
<path style="fill:#3191f9; stroke:none;" d="M680 310L681 311L680 310M265 311L266 312L265 311z"/>
<path style="fill:#6fb2fb; stroke:none;" d="M458.333 311.667L458.667 312.333L458.333 311.667M462.333 311.667L462.667 312.333L462.333 311.667z"/>
<path style="fill:#3191f9; stroke:none;" d="M266 312L267 313L266 312z"/>
<path style="fill:#6fb2fb; stroke:none;" d="M387 312L388 313L387 312z"/>
<path style="fill:#3191f9; stroke:none;" d="M391 312L392 313L391 312z"/>
<path style="fill:#6fb2fb; stroke:none;" d="M598 312L599 313L598 312z"/>
<path style="fill:#3191f9; stroke:none;" d="M267 313L268 314L267 313M387 313L388 314L387 313z"/>
<path style="fill:#6fb2fb; stroke:none;" d="M391 313L392 314L391 313z"/>
<path style="fill:#3191f9; stroke:none;" d="M458 313L459 314L458 313M602 313L603 314L602 313M675 313L676 314L675 313M268 314L269 315L268 314z"/>
<path style="fill:#6fb2fb; stroke:none;" d="M273 314L274 315L273 314M371 314L372 315L371 314z"/>
<path style="fill:#3191f9; stroke:none;" d="M597 314L598 315L597 314z"/>
<path style="fill:#6fb2fb; stroke:none;" d="M675.333 314.667L675.667 315.333L675.333 314.667M679 314L680 315L679 314z"/>
<path style="fill:#3191f9; stroke:none;" d="M269 315L270 316L269 315z"/>
<path style="fill:#6fb2fb; stroke:none;" d="M274 315L275 316L274 315z"/>
<path style="fill:#3191f9; stroke:none;" d="M386 315L387 316L386 315z"/>
<path style="fill:#6fb2fb; stroke:none;" d="M390 315L391 316L390 315z"/>
<path style="fill:#3191f9; stroke:none;" d="M461 315L462 316L461 315z"/>
<path style="fill:#6fb2fb; stroke:none;" d="M601 315L602 316L601 315z"/>
<path style="fill:#3191f9; stroke:none;" d="M679 315L680 316L679 315M270 316L271 317L270 316z"/>
<path style="fill:#6fb2fb; stroke:none;" d="M275 316L276 317L275 316M369 316L370 317L369 316M457.333 316.667L457.667 317.333L457.333 316.667M461.333 316.667L461.667 317.333L461.333 316.667z"/>
<path style="fill:#3191f9; stroke:none;" d="M596 316L597 317L596 316M174 317L175 318L174 317M271 317L272 318L271 317z"/>
<path style="fill:#6fb2fb; stroke:none;" d="M276 317L277 318L276 317z"/>
<path style="fill:#3191f9; stroke:none;" d="M368 317L369 318L368 317M385 317L386 318L385 317z"/>
<path style="fill:#6fb2fb; stroke:none;" d="M389 317L390 318L389 317M600 317L601 318L600 317z"/>
<path style="fill:#3191f9; stroke:none;" d="M175 318L176 319L175 318M272 318L273 319L272 318z"/>
<path style="fill:#6fb2fb; stroke:none;" d="M277 318L278 319L277 318z"/>
<path style="fill:#3191f9; stroke:none;" d="M367 318L368 319L367 318z"/>
<path style="fill:#6fb2fb; stroke:none;" d="M384 318L385 319L384 318z"/>
<path style="fill:#3191f9; stroke:none;" d="M457 318L458 319L457 318z"/>
<path style="fill:#6fb2fb; stroke:none;" d="M595 318L596 319L595 318z"/>
<path style="fill:#3191f9; stroke:none;" d="M674 318L675 319L674 318M176 319L177 320L176 319M273 319L274 320L273 319z"/>
<path style="fill:#6fb2fb; stroke:none;" d="M278 319L279 320L278 319z"/>
<path style="fill:#3191f9; stroke:none;" d="M366 319L367 320L366 319z"/>
<path style="fill:#6fb2fb; stroke:none;" d="M388 319L389 320L388 319M599 319L600 320L599 319M674 319L675 320L674 319M678 319L679 320L678 319z"/>
<path style="fill:#3191f9; stroke:none;" d="M177 320L178 321L177 320M274 320L275 321L274 320z"/>
<path style="fill:#6fb2fb; stroke:none;" d="M279 320L280 321L279 320M365 320L366 321L365 320M383 320L384 321L383 320M456 320L457 321L456 320z"/>
<path style="fill:#3191f9; stroke:none;" d="M460 320L461 321L460 320M474 320L475 321L474 320M678 320L679 321L678 320M178 321L179 322L178 321M275 321L276 322L275 321z"/>
<path style="fill:#6fb2fb; stroke:none;" d="M280 321L281 322L280 321M364 321L365 322L364 321M382 321L383 322L382 321M387 321L388 322L387 321z"/>
<path style="fill:#3191f9; stroke:none;" d="M456 321L457 322L456 321z"/>
<path style="fill:#6fb2fb; stroke:none;" d="M460 321L461 322L460 321M593 321L594 322L593 321z"/>
<path style="fill:#3191f9; stroke:none;" d="M598 321L599 322L598 321M179 322L180 323L179 322M276 322L277 323L276 322z"/>
<path style="fill:#6fb2fb; stroke:none;" d="M281 322L282 323L281 322z"/>
<path style="fill:#3191f9; stroke:none;" d="M362 322L363 323L362 322z"/>
<path style="fill:#6fb2fb; stroke:none;" d="M386 322L387 323L386 322z"/>
<path style="fill:#3191f9; stroke:none;" d="M592 322L593 323L592 322z"/>
<path style="fill:#6fb2fb; stroke:none;" d="M673 322L674 323L673 322M677 322L678 323L677 322z"/>
<path style="fill:#3191f9; stroke:none;" d="M180 323L181 324L180 323M277 323L278 324L277 323z"/>
<path style="fill:#6fb2fb; stroke:none;" d="M282 323L283 324L282 323z"/>
<path style="fill:#3191f9; stroke:none;" d="M360 323L361 324L360 323z"/>
<path style="fill:#6fb2fb; stroke:none;" d="M361 323L362 324L361 323z"/>
<path style="fill:#3191f9; stroke:none;" d="M381 323L382 324L381 323M385 323L386 324L385 323z"/>
<path style="fill:#6fb2fb; stroke:none;" d="M455.333 323.667L455.667 324.333L455.333 323.667z"/>
<path style="fill:#3191f9; stroke:none;" d="M459 323L460 324L459 323z"/>
<path style="fill:#6fb2fb; stroke:none;" d="M473 323L474 324L473 323z"/>
<path style="fill:#3191f9; stroke:none;" d="M677 323L678 324L677 323M181 324L182 325L181 324M278 324L279 325L278 324z"/>
<path style="fill:#6fb2fb; stroke:none;" d="M283 324L284 325L283 324z"/>
<path style="fill:#3191f9; stroke:none;" d="M358 324L359 325L358 324z"/>
<path style="fill:#6fb2fb; stroke:none;" d="M359 324L360 325L359 324z"/>
<path style="fill:#3191f9; stroke:none;" d="M380 324L381 325L380 324z"/>
<path style="fill:#6fb2fb; stroke:none;" d="M385 324L386 325L385 324M459 324L460 325L459 324z"/>
<path style="fill:#3191f9; stroke:none;" d="M473 324L474 325L473 324M596 324L597 325L596 324M182 325L183 326L182 325M279 325L280 326L279 325z"/>
<path style="fill:#6fb2fb; stroke:none;" d="M284 325L285 326L284 325z"/>
<path style="fill:#3191f9; stroke:none;" d="M356 325L357 326L356 325z"/>
<path style="fill:#6fb2fb; stroke:none;" d="M357 325L358 326L357 325M379 325L380 326L379 325M384 325L385 326L384 325z"/>
<path style="fill:#3191f9; stroke:none;" d="M455 325L456 326L455 325z"/>
<path style="fill:#6fb2fb; stroke:none;" d="M595 325L596 326L595 325M672 325L673 326L672 325z"/>
<path style="fill:#3191f9; stroke:none;" d="M183 326L184 327L183 326M280 326L281 327L280 326z"/>
<path style="fill:#6fb2fb; stroke:none;" d="M285 326L286 327L285 326z"/>
<path style="fill:#3191f9; stroke:none;" d="M353 326L354 327L353 326z"/>
<path style="fill:#6fb2fb; stroke:none;" d="M354 326L355 327L354 326M378 326L379 327L378 326z"/>
<path style="fill:#3191f9; stroke:none;" d="M383 326L384 327L383 326z"/>
<path style="fill:#6fb2fb; stroke:none;" d="M472 326L473 327L472 326M589 326L590 327L589 326z"/>
<path style="fill:#3191f9; stroke:none;" d="M676 326L677 327L676 326M184 327L185 328L184 327M281 327L282 328L281 327z"/>
<path style="fill:#6fb2fb; stroke:none;" d="M286 327L287 328L286 327z"/>
<path style="fill:#3191f9; stroke:none;" d="M348.667 327.333L349.333 327.667L348.667 327.333z"/>
<path style="fill:#6fb2fb; stroke:none;" d="M350.667 327.333L351.333 327.667L350.667 327.333z"/>
<path style="fill:#3191f9; stroke:none;" d="M382 327L383 328L382 327z"/>
<path style="fill:#6fb2fb; stroke:none;" d="M454 327L455 328L454 327M458 327L459 328L458 327z"/>
<path style="fill:#3191f9; stroke:none;" d="M472 327L473 328L472 327M185 328L186 329L185 328M282 328L283 329L282 328z"/>
<path style="fill:#6fb2fb; stroke:none;" d="M287 328L288 329L287 328M376 328L377 329L376 328M671 328L672 329L671 328z"/>
<path style="fill:#3191f9; stroke:none;" d="M186 329L187 330L186 329M283 329L284 330L283 329z"/>
<path style="fill:#6fb2fb; stroke:none;" d="M288 329L289 330L288 329z"/>
<path style="fill:#3191f9; stroke:none;" d="M375 329L376 330L375 329z"/>
<path style="fill:#6fb2fb; stroke:none;" d="M381 329L382 330L381 329M453 329L454 330L453 329z"/>
<path style="fill:#3191f9; stroke:none;" d="M457 329L458 330L457 329z"/>
<path style="fill:#6fb2fb; stroke:none;" d="M471.333 329.667L471.667 330.333L471.333 329.667z"/>
<path style="fill:#3191f9; stroke:none;" d="M675 329L676 330L675 329M187 330L188 331L187 330M284 330L285 331L284 330z"/>
<path style="fill:#6fb2fb; stroke:none;" d="M289 330L290 331L289 330M373 330L374 331L373 330M380 330L381 331L380 330z"/>
<path style="fill:#3191f9; stroke:none;" d="M453 330L454 331L453 330z"/>
<path style="fill:#6fb2fb; stroke:none;" d="M457 330L458 331L457 330z"/>
<path style="fill:#3191f9; stroke:none;" d="M584 330L585 331L584 330M670 330L671 331L670 330M188 331L189 332L188 331M285 331L286 332L285 331z"/>
<path style="fill:#6fb2fb; stroke:none;" d="M290 331L291 332L290 331M372 331L373 332L372 331z"/>
<path style="fill:#3191f9; stroke:none;" d="M379 331L380 332L379 331M471 331L472 332L471 331z"/>
<path style="fill:#6fb2fb; stroke:none;" d="M583 331L584 332L583 331M670 331L671 332L670 331M674 331L675 332L674 331M189 332L190 333L189 332z"/>
<path style="fill:#3191f9; stroke:none;" d="M286 332L287 333L286 332z"/>
<path style="fill:#6fb2fb; stroke:none;" d="M291 332L292 333L291 332M371 332L372 333L371 332M377 332L378 333L377 332M452 332L453 333L452 332z"/>
<path style="fill:#3191f9; stroke:none;" d="M456 332L457 333L456 332M581 332L582 333L581 332z"/>
<path style="fill:#6fb2fb; stroke:none;" d="M588 332L589 333L588 332z"/>
<path style="fill:#3191f9; stroke:none;" d="M674 332L675 333L674 332z"/>
<path style="fill:#6fb2fb; stroke:none;" d="M190 333L191 334L190 333z"/>
<path style="fill:#3191f9; stroke:none;" d="M287 333L288 334L287 333z"/>
<path style="fill:#6fb2fb; stroke:none;" d="M292 333L293 334L292 333M369 333L370 334L369 333z"/>
<path style="fill:#3191f9; stroke:none;" d="M370 333L371 334L370 333z"/>
<path style="fill:#6fb2fb; stroke:none;" d="M376 333L377 334L376 333z"/>
<path style="fill:#3191f9; stroke:none;" d="M452 333L453 334L452 333z"/>
<path style="fill:#6fb2fb; stroke:none;" d="M456 333L457 334L456 333M470.333 333.667L470.667 334.333L470.333 333.667M580 333L581 334L580 333z"/>
<path style="fill:#3191f9; stroke:none;" d="M587 333L588 334L587 333z"/>
<path style="fill:#6fb2fb; stroke:none;" d="M669 333L670 334L669 333M191 334L192 335L191 334z"/>
<path style="fill:#3191f9; stroke:none;" d="M288 334L289 335L288 334z"/>
<path style="fill:#6fb2fb; stroke:none;" d="M293 334L294 335L293 334M368 334L369 335L368 334M375 334L376 335L375 334M451 334L452 335L451 334M578 334L579 335L578 334z"/>
<path style="fill:#3191f9; stroke:none;" d="M586 334L587 335L586 334M673 334L674 335L673 334z"/>
<path style="fill:#6fb2fb; stroke:none;" d="M192 335L193 336L192 335z"/>
<path style="fill:#3191f9; stroke:none;" d="M289 335L290 336L289 335z"/>
<path style="fill:#6fb2fb; stroke:none;" d="M294 335L295 336L294 335M366 335L367 336L366 335z"/>
<path style="fill:#3191f9; stroke:none;" d="M373 335L374 336L373 335M451 335L452 336L451 335z"/>
<path style="fill:#6fb2fb; stroke:none;" d="M455 335L456 336L455 335M471 335L472 336L471 335M576 335L577 336L576 335M584 335L585 336L584 335z"/>
<path style="fill:#3191f9; stroke:none;" d="M668 335L669 336L668 335z"/>
<path style="fill:#6fb2fb; stroke:none;" d="M193 336L194 337L193 336z"/>
<path style="fill:#3191f9; stroke:none;" d="M290 336L291 337L290 336z"/>
<path style="fill:#6fb2fb; stroke:none;" d="M295 336L296 337L295 336M364 336L365 337L364 336M372 336L373 337L372 336M450 336L451 337L450 336M472 336L473 337L472 336z"/>
<path style="fill:#3191f9; stroke:none;" d="M573 336L574 337L573 336z"/>
<path style="fill:#6fb2fb; stroke:none;" d="M574 336L575 337L574 336z"/>
<path style="fill:#3191f9; stroke:none;" d="M583 336L584 337L583 336z"/>
<path style="fill:#6fb2fb; stroke:none;" d="M672 336L673 337L672 336M194 337L195 338L194 337z"/>
<path style="fill:#3191f9; stroke:none;" d="M291 337L292 338L291 337z"/>
<path style="fill:#6fb2fb; stroke:none;" d="M296 337L297 338L296 337M362 337L363 338L362 337z"/>
<path style="fill:#3191f9; stroke:none;" d="M370 337L371 338L370 337M450 337L451 338L450 337z"/>
<path style="fill:#6fb2fb; stroke:none;" d="M454 337L455 338L454 337M473 337L474 338L473 337z"/>
<path style="fill:#3191f9; stroke:none;" d="M570 337L571 338L570 337z"/>
<path style="fill:#6fb2fb; stroke:none;" d="M571 337L572 338L571 337z"/>
<path style="fill:#3191f9; stroke:none;" d="M581 337L582 338L581 337M667 337L668 338L667 337z"/>
<path style="fill:#6fb2fb; stroke:none;" d="M195 338L196 339L195 338z"/>
<path style="fill:#3191f9; stroke:none;" d="M292 338L293 339L292 338z"/>
<path style="fill:#6fb2fb; stroke:none;" d="M297 338L298 339L297 338M359 338L360 339L359 338z"/>
<path style="fill:#3191f9; stroke:none;" d="M360 338L361 339L360 338M368 338L369 339L368 338z"/>
<path style="fill:#6fb2fb; stroke:none;" d="M369 338L370 339L369 338M449 338L450 339L449 338M468 338L469 339L468 338M474 338L475 339L474 338z"/>
<path style="fill:#3191f9; stroke:none;" d="M564.667 338.333L565.333 338.667L564.667 338.333z"/>
<path style="fill:#6fb2fb; stroke:none;" d="M566.667 338.333L567.333 338.667L566.667 338.333M579 338L580 339L579 338M671 338L672 339L671 338M196 339L197 340L196 339z"/>
<path style="fill:#3191f9; stroke:none;" d="M293 339L294 340L293 339z"/>
<path style="fill:#6fb2fb; stroke:none;" d="M298 339L299 340L298 339M356 339L357 340L356 339z"/>
<path style="fill:#3191f9; stroke:none;" d="M357 339L358 340L357 339z"/>
<path style="fill:#6fb2fb; stroke:none;" d="M367 339L368 340L367 339z"/>
<path style="fill:#3191f9; stroke:none;" d="M449 339L450 340L449 339z"/>
<path style="fill:#6fb2fb; stroke:none;" d="M453 339L454 340L453 339z"/>
<path style="fill:#3191f9; stroke:none;" d="M469 339L470 340L469 339M577 339L578 340L577 339M666 339L667 340L666 339z"/>
<path style="fill:#6fb2fb; stroke:none;" d="M197 340L198 341L197 340z"/>
<path style="fill:#3191f9; stroke:none;" d="M294 340L295 341L294 340z"/>
<path style="fill:#6fb2fb; stroke:none;" d="M299 340L300 341L299 340M350 340L350 341L353 341L350 340z"/>
<path style="fill:#3191f9; stroke:none;" d="M353 340L354 341L353 340M364 340L365 341L364 340z"/>
<path style="fill:#6fb2fb; stroke:none;" d="M365 340L366 341L365 340M467 340L468 341L467 340z"/>
<path style="fill:#3191f9; stroke:none;" d="M470 340L471 341L470 340z"/>
<path style="fill:#6fb2fb; stroke:none;" d="M574 340L575 341L574 340M670 340L671 341L670 340M198 341L199 342L198 341z"/>
<path style="fill:#3191f9; stroke:none;" d="M295 341L296 342L295 341M300 341L300 342L348 342C335.586 336.791 313.526 341 300 341M362 341L363 342L362 341z"/>
<path style="fill:#6fb2fb; stroke:none;" d="M363 341L364 342L363 341z"/>
<path style="fill:#3191f9; stroke:none;" d="M448 341L449 342L448 341z"/>
<path style="fill:#6fb2fb; stroke:none;" d="M452 341L453 342L452 341z"/>
<path style="fill:#3191f9; stroke:none;" d="M467 341L468 342L467 341M471 341L472 342L471 341z"/>
<path style="fill:#6fb2fb; stroke:none;" d="M571 341L572 342L571 341M665 341L666 342L665 341M199 342L200 343L199 342z"/>
<path style="fill:#3191f9; stroke:none;" d="M296 342L297 343L296 342M359 342L360 343L359 342z"/>
<path style="fill:#6fb2fb; stroke:none;" d="M360 342L361 343L360 342M447 342L448 343L447 342M466 342L467 343L466 342z"/>
<path style="fill:#3191f9; stroke:none;" d="M472 342L473 343L472 342z"/>
<path style="fill:#6fb2fb; stroke:none;" d="M565 342L565 343L568 343L565 342z"/>
<path style="fill:#3191f9; stroke:none;" d="M568 342L569 343L568 342z"/>
<path style="fill:#6fb2fb; stroke:none;" d="M669 342L670 343L669 342M200 343L201 344L200 343z"/>
<path style="fill:#3191f9; stroke:none;" d="M297 343L298 344L297 343M355 343L356 344L355 343z"/>
<path style="fill:#6fb2fb; stroke:none;" d="M356.667 343.333L357.333 343.667L356.667 343.333M451 343L452 344L451 343z"/>
<path style="fill:#3191f9; stroke:none;" d="M466 343L467 344L466 343M473 343L473 344L561 344L534 343L473 343z"/>
<path style="fill:#6fb2fb; stroke:none;" d="M664 343L665 344L664 343M201 344L202 345L201 344z"/>
<path style="fill:#3191f9; stroke:none;" d="M298 344L299 345L298 344M349.667 344.333L350.333 344.667L349.667 344.333z"/>
<path style="fill:#6fb2fb; stroke:none;" d="M351 344L351 345L354 345L351 344M446 344L447 345L446 344M465 344L466 345L465 344z"/>
<path style="fill:#3191f9; stroke:none;" d="M663 344L664 345L663 344z"/>
<path style="fill:#6fb2fb; stroke:none;" d="M668 344L669 345L668 344M202 345L203 346L202 345M299 345L299 346L344 346C332.299 341.09 311.742 345 299 345M450 345L451 346L450 345z"/>
<path style="fill:#3191f9; stroke:none;" d="M465 345L466 346L465 345z"/>
<path style="fill:#6fb2fb; stroke:none;" d="M203 346L204 347L203 346z"/>
<path style="fill:#3191f9; stroke:none;" d="M445 346L446 347L445 346M449 346L450 347L449 346z"/>
<path style="fill:#6fb2fb; stroke:none;" d="M464 346L465 347L464 346M662 346L663 347L662 346z"/>
<path style="fill:#3191f9; stroke:none;" d="M667 346L668 347L667 346z"/>
<path style="fill:#6fb2fb; stroke:none;" d="M204 347L205 348L204 347M444 347L445 348L444 347z"/>
<path style="fill:#3191f9; stroke:none;" d="M464 347L465 348L464 347z"/>
<path style="fill:#6fb2fb; stroke:none;" d="M666 347L667 348L666 347M205 348L206 349L205 348z"/>
<path style="fill:#3191f9; stroke:none;" d="M444 348L445 349L444 348z"/>
<path style="fill:#6fb2fb; stroke:none;" d="M448 348L449 349L448 348M463 348L464 349L463 348M206 349L207 350L206 349M443 349L444 350L443 349z"/>
<path style="fill:#3191f9; stroke:none;" d="M463 349L464 350L463 349M660 349L661 350L660 349M665 349L666 350L665 349z"/>
<path style="fill:#6fb2fb; stroke:none;" d="M207 350L208 351L207 350M442 350L443 351L442 350M447 350L448 351L447 350M462 350L463 351L462 350M664 350L665 351L664 350M208 351L209 352L208 351M446 351L447 352L446 351M209 352L210 353L209 352z"/>
<path style="fill:#3191f9; stroke:none;" d="M441 352L442 353L441 352z"/>
<path style="fill:#6fb2fb; stroke:none;" d="M461 352L462 353L461 352M658 352L659 353L658 352z"/>
<path style="fill:#3191f9; stroke:none;" d="M663 352L664 353L663 352z"/>
<path style="fill:#6fb2fb; stroke:none;" d="M210 353L211 354L210 353M440 353L441 354L440 353M445 353L446 354L445 353z"/>
<path style="fill:#3191f9; stroke:none;" d="M657 353L658 354L657 353z"/>
<path style="fill:#6fb2fb; stroke:none;" d="M662 353L663 354L662 353M211 354L212 355L211 354M439 354L440 355L439 354M444 354L445 355L444 354z"/>
<path style="fill:#3191f9; stroke:none;" d="M460 354L461 355L460 354z"/>
<path style="fill:#6fb2fb; stroke:none;" d="M212 355L213 356L212 355z"/>
<path style="fill:#3191f9; stroke:none;" d="M439 355L440 356L439 355M443 355L444 356L443 355z"/>
<path style="fill:#6fb2fb; stroke:none;" d="M459 355L460 356L459 355z"/>
<path style="fill:#3191f9; stroke:none;" d="M661 355L662 356L661 355z"/>
<path style="fill:#6fb2fb; stroke:none;" d="M213 356L214 357L213 356z"/>
<path style="fill:#3191f9; stroke:none;" d="M438 356L439 357L438 356z"/>
<path style="fill:#6fb2fb; stroke:none;" d="M655 356L656 357L655 356z"/>
<path style="fill:#3191f9; stroke:none;" d="M660 356L661 357L660 356z"/>
<path style="fill:#6fb2fb; stroke:none;" d="M214 357L215 358L214 357z"/>
<path style="fill:#3191f9; stroke:none;" d="M437 357L438 358L437 357z"/>
<path style="fill:#6fb2fb; stroke:none;" d="M442 357L443 358L442 357M458 357L459 358L458 357M654 357L655 358L654 357M659 357L660 358L659 357M215 358L216 359L215 358M436 358L437 359L436 358M441 358L442 359L441 358z"/>
<path style="fill:#3191f9; stroke:none;" d="M653 358L654 359L653 358z"/>
<path style="fill:#6fb2fb; stroke:none;" d="M216 359L217 360L216 359M435 359L436 360L435 359z"/>
<path style="fill:#3191f9; stroke:none;" d="M440 359L441 360L440 359M457 359L458 360L457 359M652 359L653 360L652 359z"/>
<path style="fill:#6fb2fb; stroke:none;" d="M217 360L218 361L217 360M434 360L435 361L434 360z"/>
<path style="fill:#3191f9; stroke:none;" d="M439 360L440 361L439 360z"/>
<path style="fill:#6fb2fb; stroke:none;" d="M456 360L457 361L456 360z"/>
<path style="fill:#3191f9; stroke:none;" d="M657 360L658 361L657 360z"/>
<path style="fill:#6fb2fb; stroke:none;" d="M218 361L219 362L218 361M433 361L434 362L433 361M455 361L456 362L455 361z"/>
<path style="fill:#3191f9; stroke:none;" d="M656 361L657 362L656 361z"/>
<path style="fill:#6fb2fb; stroke:none;" d="M219 362L220 363L219 362M432 362L433 363L432 362M438 362L439 363L438 362M655 362L656 363L655 362M220 363L221 364L220 363M437 363L438 364L437 363z"/>
<path style="fill:#3191f9; stroke:none;" d="M454 363L455 364L454 363z"/>
<path style="fill:#6fb2fb; stroke:none;" d="M654 363L655 364L654 363M221 364L222 365L221 364M430 364L431 365L430 364M436 364L437 365L436 364M453 364L454 365L453 364M653 364L654 365L653 364M222 365L223 366L222 365M429 365L430 366L429 365M435 365L436 366L435 365M652 365L653 366L652 365M223 366L224 367L223 366M428 366L429 367L428 366M434 366L435 367L434 366z"/>
<path style="fill:#3191f9; stroke:none;" d="M452 366L453 367L452 366z"/>
<path style="fill:#6fb2fb; stroke:none;" d="M651 366L652 367L651 366z"/>
<path style="fill:#bcddff; stroke:none;" d="M157 367L157 570L254 570L254 477L303 514C294.919 502.528 282.918 492.918 273 483C256.493 466.493 240.515 449.515 224 433C202.657 411.657 181.653 384.366 157 367z"/>
<path style="fill:#6fb2fb; stroke:none;" d="M224 367L225 368L224 367M427 367L428 368L427 367M433 367L434 368L433 367z"/>
<path style="fill:#3191f9; stroke:none;" d="M451 367L452 368L451 367z"/>
<path style="fill:#6fb2fb; stroke:none;" d="M225 368L226 369L225 368M426 368L427 369L426 368M432 368L433 369L432 368M450 368L451 369L450 368M226 369L227 370L226 369M425 369L426 370L425 369M431 369L432 370L431 369M449 369L450 370L449 369M643 369L644 370L643 369M227 370L228 371L227 370z"/>
<path style="fill:#3191f9; stroke:none;" d="M424 370L425 371L424 370z"/>
<path style="fill:#6fb2fb; stroke:none;" d="M430 370L431 371L430 370M642 370L643 371L642 370M228 371L229 372L228 371z"/>
<path style="fill:#3191f9; stroke:none;" d="M423 371L424 372L423 371M428 371L429 372L428 371z"/>
<path style="fill:#6fb2fb; stroke:none;" d="M641 371L642 372L641 371M229 372L230 373L229 372M421 372L422 373L421 372z"/>
<path style="fill:#3191f9; stroke:none;" d="M427 372L428 373L427 372M447 372L448 373L447 372z"/>
<path style="fill:#6fb2fb; stroke:none;" d="M640 372L641 373L640 372M230 373L231 374L230 373M420 373L421 374L420 373z"/>
<path style="fill:#3191f9; stroke:none;" d="M426 373L427 374L426 373M446 373L447 374L446 373z"/>
<path style="fill:#6fb2fb; stroke:none;" d="M639 373L640 374L639 373M231 374L232 375L231 374z"/>
<path style="fill:#3191f9; stroke:none;" d="M419 374L420 375L419 374z"/>
<path style="fill:#6fb2fb; stroke:none;" d="M425 374L426 375L425 374z"/>
<path style="fill:#3191f9; stroke:none;" d="M445 374L446 375L445 374z"/>
<path style="fill:#6fb2fb; stroke:none;" d="M638 374L639 375L638 374M232 375L233 376L232 375M417 375L418 376L417 375M424 375L425 376L424 375z"/>
<path style="fill:#3191f9; stroke:none;" d="M444 375L445 376L444 375M638 375L639 376L638 375z"/>
<path style="fill:#6fb2fb; stroke:none;" d="M644 375L645 376L644 375M227 376L228 377L227 376M233 376L234 377L233 376z"/>
<path style="fill:#3191f9; stroke:none;" d="M416 376L417 377L416 376M422 376L423 377L422 376M443 376L444 377L443 376M639 376L640 377L639 376M645 376L646 377L645 376z"/>
<path style="fill:#6fb2fb; stroke:none;" d="M228 377L229 378L228 377M234 377L235 378L234 377M414 377L415 378L414 377M421 377L422 378L421 377z"/>
<path style="fill:#3191f9; stroke:none;" d="M442 377L443 378L442 377M640 377L641 378L640 377M646 377L647 378L646 377z"/>
<path style="fill:#6fb2fb; stroke:none;" d="M229 378L230 379L229 378M235 378L236 379L235 378M412 378L413 379L412 378z"/>
<path style="fill:#3191f9; stroke:none;" d="M413 378L414 379L413 378M419 378L420 379L419 378z"/>
<path style="fill:#6fb2fb; stroke:none;" d="M420 378L421 379L420 378z"/>
<path style="fill:#3191f9; stroke:none;" d="M441 378L442 379L441 378M641 378L642 379L641 378M647 378L648 379L647 378z"/>
<path style="fill:#6fb2fb; stroke:none;" d="M230 379L231 380L230 379M236 379L237 380L236 379z"/>
<path style="fill:#3191f9; stroke:none;" d="M411 379L412 380L411 379z"/>
<path style="fill:#6fb2fb; stroke:none;" d="M418 379L419 380L418 379z"/>
<path style="fill:#3191f9; stroke:none;" d="M440 379L441 380L440 379M642 379L643 380L642 379M648 379L649 380L648 379z"/>
<path style="fill:#6fb2fb; stroke:none;" d="M231 380L232 381L231 380M237 380L238 381L237 380M409 380L410 381L409 380z"/>
<path style="fill:#3191f9; stroke:none;" d="M416 380L417 381L416 380z"/>
<path style="fill:#6fb2fb; stroke:none;" d="M417 380L418 381L417 380z"/>
<path style="fill:#3191f9; stroke:none;" d="M439 380L440 381L439 380M643 380L644 381L643 380M649 380L650 381L649 380z"/>
<path style="fill:#6fb2fb; stroke:none;" d="M232 381L233 382L232 381M238 381L239 382L238 381M407 381L408 382L407 381M415 381L416 382L415 381z"/>
<path style="fill:#3191f9; stroke:none;" d="M644 381L645 382L644 381M650 381L651 382L650 381z"/>
<path style="fill:#6fb2fb; stroke:none;" d="M233 382L234 383L233 382M239 382L240 383L239 382M405 382L406 383L405 382z"/>
<path style="fill:#3191f9; stroke:none;" d="M413 382L414 383L413 382z"/>
<path style="fill:#6fb2fb; stroke:none;" d="M436 382L437 383L436 382z"/>
<path style="fill:#3191f9; stroke:none;" d="M645 382L646 383L645 382M651 382L652 383L651 382z"/>
<path style="fill:#6fb2fb; stroke:none;" d="M234 383L235 384L234 383M240 383L241 384L240 383M403 383L404 384L403 383z"/>
<path style="fill:#3191f9; stroke:none;" d="M411 383L412 384L411 383z"/>
<path style="fill:#6fb2fb; stroke:none;" d="M412 383L413 384L412 383M435 383L436 384L435 383z"/>
<path style="fill:#3191f9; stroke:none;" d="M646 383L647 384L646 383M652 383L653 384L652 383z"/>
<path style="fill:#6fb2fb; stroke:none;" d="M235 384L236 385L235 384M241 384L242 385L241 384M401 384L402 385L401 384M410 384L411 385L410 384z"/>
<path style="fill:#3191f9; stroke:none;" d="M434 384L435 385L434 384z"/>
<path style="fill:#6fb2fb; stroke:none;" d="M647 384L648 385L647 384M236 385L237 386L236 385M242 385L243 386L242 385M398 385L399 386L398 385z"/>
<path style="fill:#3191f9; stroke:none;" d="M399 385L400 386L399 385z"/>
<path style="fill:#6fb2fb; stroke:none;" d="M408 385L409 386L408 385z"/>
<path style="fill:#3191f9; stroke:none;" d="M433 385L434 386L433 385z"/>
<path style="fill:#6fb2fb; stroke:none;" d="M648 385L649 386L648 385M237 386L238 387L237 386M243 386L244 387L243 386M396 386L397 387L396 386M406 386L407 387L406 386M431 386L432 387L431 386M649 386L650 387L649 386M238 387L239 388L238 387M244 387L245 388L244 387M393 387L394 388L393 387z"/>
<path style="fill:#3191f9; stroke:none;" d="M394 387L395 388L394 387M403 387L404 388L403 387z"/>
<path style="fill:#6fb2fb; stroke:none;" d="M404 387L405 388L404 387M430 387L431 388L430 387M650 387L651 388L650 387M239 388L240 389L239 388M245 388L246 389L245 388M389.667 388.333L390.333 388.667L389.667 388.333z"/>
<path style="fill:#3191f9; stroke:none;" d="M391 388L392 389L391 388M401 388L402 389L401 388z"/>
<path style="fill:#6fb2fb; stroke:none;" d="M651 388L652 389L651 388M240 389L241 390L240 389M246 389L247 390L246 389M385.667 389.333L386.333 389.667L385.667 389.333z"/>
<path style="fill:#3191f9; stroke:none;" d="M387 389L388 390L387 389M398 389L399 390L398 389z"/>
<path style="fill:#6fb2fb; stroke:none;" d="M399 389L400 390L399 389M657 389L658 390L657 389M241 390L242 391L241 390M247 390L248 391L247 390M380 390L380 391L383 391L380 390z"/>
<path style="fill:#3191f9; stroke:none;" d="M383 390L384 391L383 390z"/>
<path style="fill:#6fb2fb; stroke:none;" d="M396 390L397 391L396 390z"/>
<path style="fill:#3191f9; stroke:none;" d="M658 390L659 391L658 390z"/>
<path style="fill:#6fb2fb; stroke:none;" d="M242 391L243 392L242 391M248 391L249 392L248 391M373 391L373 392L377 392L373 391z"/>
<path style="fill:#3191f9; stroke:none;" d="M377.667 391.333L378.333 391.667L377.667 391.333z"/>
<path style="fill:#6fb2fb; stroke:none;" d="M393.667 391.333L394.333 391.667L393.667 391.333M424 391L425 392L424 391M427 391L428 392L427 391z"/>
<path style="fill:#3191f9; stroke:none;" d="M659 391L660 392L659 391z"/>
<path style="fill:#6fb2fb; stroke:none;" d="M243 392L244 393L243 392M249 392L249 393L365 393L330 392L249 392z"/>
<path style="fill:#3191f9; stroke:none;" d="M365 392L365 393L370 393L365 392M389 392L390 393L389 392z"/>
<path style="fill:#6fb2fb; stroke:none;" d="M390 392L391 393L390 392z"/>
<path style="fill:#3191f9; stroke:none;" d="M423 392L424 393L423 392z"/>
<path style="fill:#6fb2fb; stroke:none;" d="M428 392L429 393L428 392z"/>
<path style="fill:#3191f9; stroke:none;" d="M654 392L655 393L654 392z"/>
<path style="fill:#6fb2fb; stroke:none;" d="M244 393L245 394L244 393z"/>
<path style="fill:#3191f9; stroke:none;" d="M385 393L386 394L385 393z"/>
<path style="fill:#6fb2fb; stroke:none;" d="M386.667 393.333L387.333 393.667L386.667 393.333M421 393L422 394L421 393M429 393L430 394L429 393z"/>
<path style="fill:#3191f9; stroke:none;" d="M655 393L656 394L655 393z"/>
<path style="fill:#6fb2fb; stroke:none;" d="M245 394L246 395L245 394z"/>
<path style="fill:#3191f9; stroke:none;" d="M380 394L381 395L380 394z"/>
<path style="fill:#6fb2fb; stroke:none;" d="M381.667 394.333L382.333 394.667L381.667 394.333M419 394L420 395L419 394z"/>
<path style="fill:#3191f9; stroke:none;" d="M420 394L421 395L420 394z"/>
<path style="fill:#6fb2fb; stroke:none;" d="M430 394L431 395L430 394M656 394L657 395L656 394M661 394L662 395L661 394M246 395L247 396L246 395z"/>
<path style="fill:#3191f9; stroke:none;" d="M371 395L371 396L374 396L371 395z"/>
<path style="fill:#6fb2fb; stroke:none;" d="M374 395L374 396L378 396L374 395z"/>
<path style="fill:#3191f9; stroke:none;" d="M418 395L419 396L418 395z"/>
<path style="fill:#6fb2fb; stroke:none;" d="M431 395L432 396L431 395z"/>
<path style="fill:#3191f9; stroke:none;" d="M662 395L663 396L662 395z"/>
<path style="fill:#6fb2fb; stroke:none;" d="M248 396L248 397L367 397L331 396L248 396z"/>
<path style="fill:#3191f9; stroke:none;" d="M416 396L417 397L416 396z"/>
<path style="fill:#6fb2fb; stroke:none;" d="M432 396L433 397L432 396M414 397L415 398L414 397M433 397L434 398L433 397z"/>
<path style="fill:#3191f9; stroke:none;" d="M658 397L659 398L658 397z"/>
<path style="fill:#6fb2fb; stroke:none;" d="M663 397L664 398L663 397z"/>
<path style="fill:#010101; stroke:none;" d="M383 408C397.014 427.895 418.781 444.781 436 462C442.452 468.452 453.479 476.018 456 485C465.123 485.688 471.918 495.918 478 502C493.315 517.315 508.302 536.533 526 549L509.884 527L483 485L542 485C552.13 485 563.611 486.64 573 482.084C592.837 472.459 593.527 442.709 574.999 431.479C564.014 424.821 549.272 427 537 427L456 427L456 438L427 410L414 398.994L383 408z"/>
<path style="fill:#6fb2fb; stroke:none;" d="M434 398L435 399L434 398M659 398L660 399L659 398z"/>
<path style="fill:#3191f9; stroke:none;" d="M664 398L665 399L664 398z"/>
<path style="fill:#6fb2fb; stroke:none;" d="M435 399L436 400L435 399z"/>
<path style="fill:#3191f9; stroke:none;" d="M170 400L170 556L171 556L171 447C171 433.747 175.107 412.17 170 400z"/>
<path style="fill:#6fb2fb; stroke:none;" d="M171 400C180.517 413.51 196.49 429.483 210 439C200.483 425.49 184.51 409.517 171 400M436 400L437 401L436 400z"/>
<path style="fill:#3191f9; stroke:none;" d="M660 400L661 401L660 400z"/>
<path style="fill:#6fb2fb; stroke:none;" d="M665 400L666 401L665 400z"/>
<path style="fill:#0177f7; stroke:none;" d="M171 401L171 556L240 556L240 497L239.397 470L220 449L171 401z"/>
<path style="fill:#6fb2fb; stroke:none;" d="M437 401L438 402L437 401M661 401L662 402L661 401z"/>
<path style="fill:#3191f9; stroke:none;" d="M666 401L667 402L666 401z"/>
<path style="fill:#6fb2fb; stroke:none;" d="M438 402L439 403L438 402M439 403L440 404L439 403z"/>
<path style="fill:#3191f9; stroke:none;" d="M662 403L663 404L662 403z"/>
<path style="fill:#6fb2fb; stroke:none;" d="M667 403L668 404L667 403M440 404L441 405L440 404M663 404L664 405L663 404M441 405L442 406L441 405M668 405L669 406L668 405M442 406L443 407L442 406M664 406L665 407L664 406M443 407L444 408L443 407M376 408L376 409L379 409L376 408z"/>
<path style="fill:#3191f9; stroke:none;" d="M379.667 408.333L380.333 408.667L379.667 408.333z"/>
<path style="fill:#6fb2fb; stroke:none;" d="M444 408L445 409L444 408z"/>
<path style="fill:#3191f9; stroke:none;" d="M665 408L666 409L665 408M670 408L671 409L670 408z"/>
<path style="fill:#bcddff; stroke:none;" d="M174 409L174 552L236 552L236 497L235.397 472L217 452L174 409z"/>
<path style="fill:#3191f9; stroke:none;" d="M175 409L176 410L175 409z"/>
<path style="fill:#6fb2fb; stroke:none;" d="M359 409L359 410L370 410L359 409z"/>
<path style="fill:#3191f9; stroke:none;" d="M370 409L370 410L373 410L370 409z"/>
<path style="fill:#6fb2fb; stroke:none;" d="M445 409L446 410L445 409z"/>
<path style="fill:#3191f9; stroke:none;" d="M451 409L451 410L563 410L529 409L451 409z"/>
<path style="fill:#6fb2fb; stroke:none;" d="M446 410L447 411L446 410M567.667 410.333L568.333 410.667L567.667 410.333z"/>
<path style="fill:#3191f9; stroke:none;" d="M569 410L570 411L569 410M666 410L667 411L666 410M671 410L672 411L671 410z"/>
<path style="fill:#6fb2fb; stroke:none;" d="M447 411L448 412L447 411M572 411L573 412L572 411z"/>
<path style="fill:#3191f9; stroke:none;" d="M573 411L574 412L573 411z"/>
<path style="fill:#6fb2fb; stroke:none;" d="M448 412L449 413L448 412M575 412L576 413L575 412z"/>
<path style="fill:#3191f9; stroke:none;" d="M667 412L668 413L667 412M672 412L673 413L672 412z"/>
<path style="fill:#6fb2fb; stroke:none;" d="M449 413L449 414L561 414L527 413L449 413z"/>
<path style="fill:#3191f9; stroke:none;" d="M578 413L579 414L578 413z"/>
<path style="fill:#6fb2fb; stroke:none;" d="M672 413L673 414L672 413z"/>
<path style="fill:#3191f9; stroke:none;" d="M567 414L568 415L567 414z"/>
<path style="fill:#6fb2fb; stroke:none;" d="M568 414L569 415L568 414M580 414L581 415L580 414z"/>
<path style="fill:#3191f9; stroke:none;" d="M668 414L669 415L668 414M571 415L572 416L571 415z"/>
<path style="fill:#6fb2fb; stroke:none;" d="M572 415L573 416L572 415z"/>
<path style="fill:#3191f9; stroke:none;" d="M582 415L583 416L582 415z"/>
<path style="fill:#6fb2fb; stroke:none;" d="M673 415L674 416L673 415z"/>
<path style="fill:#3191f9; stroke:none;" d="M574 416L575 417L574 416z"/>
<path style="fill:#6fb2fb; stroke:none;" d="M575 416L576 417L575 416z"/>
<path style="fill:#3191f9; stroke:none;" d="M669 416L670 417L669 416M372 417L373 418L372 417z"/>
<path style="fill:#6fb2fb; stroke:none;" d="M577 417L578 418L577 417z"/>
<path style="fill:#3191f9; stroke:none;" d="M585 417L586 418L585 417M674 417L675 418L674 417z"/>
<path style="fill:#6fb2fb; stroke:none;" d="M372 418L372 556L373 556L373 460C373 448.056 376.607 428.98 372 418z"/>
<path style="fill:#bcddff; stroke:none;" d="M373 418L373 556L513 556L476 518L457 500.028L442 499C442 483.149 432.77 476.77 422 466C406.368 450.368 391.064 430.725 373 418z"/>
<path style="fill:#6fb2fb; stroke:none;" d="M579 418L580 419L579 418M670 418L671 419L670 418z"/>
<path style="fill:#3191f9; stroke:none;" d="M580 419L581 420L580 419M588 419L589 420L588 419M582 420L583 421L582 420z"/>
<path style="fill:#6fb2fb; stroke:none;" d="M589 420L590 421L589 420M675 420L676 421L675 420M584 421L585 422L584 421M590 421L591 422L590 421M671 421L672 422L671 421M585 422L586 423L585 422M591 422L592 423L591 422z"/>
<path style="fill:#3191f9; stroke:none;" d="M676 422L677 423L676 422M586 423L587 424L586 423z"/>
<path style="fill:#6fb2fb; stroke:none;" d="M676 423L677 424L676 423M593 424L594 425L593 424z"/>
<path style="fill:#3191f9; stroke:none;" d="M672 424L673 425L672 424z"/>
<path style="fill:#6fb2fb; stroke:none;" d="M594 425L595 426L594 425z"/>
<path style="fill:#3191f9; stroke:none;" d="M595 426L596 427L595 426z"/>
<path style="fill:#6fb2fb; stroke:none;" d="M677 426L678 427L677 426M376 427L377 428L376 427M673 427L674 428L673 427z"/>
<path style="fill:#3191f9; stroke:none;" d="M376 428L376 552L377 552L377 466C377 455.104 380.208 438.028 376 428z"/>
<path style="fill:#0177f7; stroke:none;" d="M377 428L377 552L503 552L470 518L454 503.603L438 503L436.972 488L418 468L377 428z"/>
<path style="fill:#3191f9; stroke:none;" d="M591 428L592 429L591 428M592 429L593 430L592 429z"/>
<path style="fill:#6fb2fb; stroke:none;" d="M597 429L598 430L597 429z"/>
<path style="fill:#3191f9; stroke:none;" d="M678 429L679 430L678 429z"/>
<path style="fill:#6fb2fb; stroke:none;" d="M593 430L594 431L593 430z"/>
<path style="fill:#3191f9; stroke:none;" d="M598 430L599 431L598 430z"/>
<path style="fill:#6fb2fb; stroke:none;" d="M674 430L675 431L674 430M678 430L679 431L678 430z"/>
<path style="fill:#3191f9; stroke:none;" d="M674 431L675 432L674 431z"/>
<path style="fill:#6fb2fb; stroke:none;" d="M599 432L600 433L599 432M595 433L596 434L595 433z"/>
<path style="fill:#3191f9; stroke:none;" d="M600 433L601 434L600 433z"/>
<path style="fill:#6fb2fb; stroke:none;" d="M675.333 434.667L675.667 435.333L675.333 434.667z"/>
<path style="fill:#3191f9; stroke:none;" d="M679 434L680 435L679 434M596 435L597 436L596 435M601 435L602 436L601 435z"/>
<path style="fill:#6fb2fb; stroke:none;" d="M679 435L680 436L679 435M601 436L602 437L601 436z"/>
<path style="fill:#3191f9; stroke:none;" d="M675 436L676 437L675 436M597 437L598 438L597 437z"/>
<path style="fill:#6fb2fb; stroke:none;" d="M602 438L603 439L602 438z"/>
<path style="fill:#3191f9; stroke:none;" d="M598 439L599 440L598 439M680 439L681 440L680 439M603 440L604 441L603 440z"/>
<path style="fill:#6fb2fb; stroke:none;" d="M676 440L677 441L676 440M680.333 440.667L680.667 441.333L680.333 440.667M599 441L600 442L599 441M603 441L604 442L603 441z"/>
<path style="fill:#3191f9; stroke:none;" d="M676.333 441.667L676.667 442.333L676.333 441.667M599 442L600 443L599 442M604 443L605 444L604 443z"/>
<path style="fill:#6fb2fb; stroke:none;" d="M209 444L210 445L209 444M600 444L601 445L600 444M604 444L605 445L604 444M210 445L211 446L210 445z"/>
<path style="fill:#3191f9; stroke:none;" d="M600 445L601 446L600 445z"/>
<path style="fill:#6fb2fb; stroke:none;" d="M211 446L212 447L211 446M212 447L213 448L212 447z"/>
<path style="fill:#3191f9; stroke:none;" d="M605.333 447.667L605.667 448.333L605.333 447.667z"/>
<path style="fill:#6fb2fb; stroke:none;" d="M213 448L214 449L213 448M601.333 448.667L601.667 449.333L601.333 448.667z"/>
<path style="fill:#3191f9; stroke:none;" d="M681 448L681 451L682 451L681 448z"/>
<path style="fill:#6fb2fb; stroke:none;" d="M214 449L215 450L214 449M605.333 449.667L605.667 450.333L605.333 449.667M677 449L677 453L678 453L677 449M215 450L216 451L215 450z"/>
<path style="fill:#3191f9; stroke:none;" d="M601.333 450.667L601.667 451.333L601.333 450.667z"/>
<path style="fill:#6fb2fb; stroke:none;" d="M216 451L217 452L216 451M681 451L681 462L682 462L681 451M217 452L218 453L217 452M218 453L219 454L218 453z"/>
<path style="fill:#3191f9; stroke:none;" d="M677 453L677 458L678 458L677 453z"/>
<path style="fill:#6fb2fb; stroke:none;" d="M219 454L220 455L219 454M220 455L221 456L220 455M221 456L222 457L221 456M222 457L223 458L222 457M223 458L224 459L223 458M677 458L677 463L678 463L677 458M224 459L225 460L224 459M225 460L226 461L225 460M226 461L227 462L226 461M227 462L228 463L227 462z"/>
<path style="fill:#3191f9; stroke:none;" d="M601 462L602 463L601 462z"/>
<path style="fill:#6fb2fb; stroke:none;" d="M605.333 462.667L605.667 463.333L605.333 462.667z"/>
<path style="fill:#3191f9; stroke:none;" d="M681.333 462.667L681.667 463.333L681.333 462.667z"/>
<path style="fill:#6fb2fb; stroke:none;" d="M228 463L229 464L228 463M601.333 463.667L601.667 464.333L601.333 463.667M229 464L230 465L229 464z"/>
<path style="fill:#3191f9; stroke:none;" d="M605 464L606 465L605 464z"/>
<path style="fill:#6fb2fb; stroke:none;" d="M230 465L231 466L230 465M231 466L232 467L231 466M232 467L233 468L232 467z"/>
<path style="fill:#3191f9; stroke:none;" d="M600 467L601 468L600 467z"/>
<path style="fill:#6fb2fb; stroke:none;" d="M604.333 467.667L604.667 468.333L604.333 467.667M233 468L234 469L233 468M600 468L601 469L600 468z"/>
<path style="fill:#3191f9; stroke:none;" d="M676.333 468.667L676.667 469.333L676.333 468.667z"/>
<path style="fill:#6fb2fb; stroke:none;" d="M234 469L235 470L234 469M680.333 469.667L680.667 470.333L680.333 469.667M235 470L236 471L235 470M240 470L240 556L241 556L241 497L240 470z"/>
<path style="fill:#3191f9; stroke:none;" d="M599 470L600 471L599 470z"/>
<path style="fill:#6fb2fb; stroke:none;" d="M676 470L677 471L676 470M236 471L236 552L174 552L174 553L219 553L235.397 551.972L237 533L237 491L236 471M603 471L604 472L603 471z"/>
<path style="fill:#3191f9; stroke:none;" d="M680 471L681 472L680 471z"/>
<path style="fill:#6fb2fb; stroke:none;" d="M598 473L599 474L598 473z"/>
<path style="fill:#3191f9; stroke:none;" d="M602 474L603 475L602 474M675 474L676 475L675 474z"/>
<path style="fill:#6fb2fb; stroke:none;" d="M597 475L598 476L597 475M675.333 475.667L675.667 476.333L675.333 475.667M679 475L680 476L679 475z"/>
<path style="fill:#3191f9; stroke:none;" d="M601 476L602 477L601 476M679.333 476.667L679.667 477.333L679.333 476.667z"/>
<path style="fill:#6fb2fb; stroke:none;" d="M596 477L597 478L596 477z"/>
<path style="fill:#3191f9; stroke:none;" d="M595 478L596 479L595 478M600 478L601 479L600 478M674 479L675 480L674 479z"/>
<path style="fill:#6fb2fb; stroke:none;" d="M594 480L595 481L594 480z"/>
<path style="fill:#3191f9; stroke:none;" d="M599 480L600 481L599 480z"/>
<path style="fill:#6fb2fb; stroke:none;" d="M674 480L675 481L674 480M678 480L679 481L678 480z"/>
<path style="fill:#3191f9; stroke:none;" d="M593 481L594 482L593 481z"/>
<path style="fill:#6fb2fb; stroke:none;" d="M598 481L599 482L598 481z"/>
<path style="fill:#3191f9; stroke:none;" d="M678 481L679 482L678 481M597 483L598 484L597 483z"/>
<path style="fill:#6fb2fb; stroke:none;" d="M673 483L674 484L673 483M596 484L597 485L596 484z"/>
<path style="fill:#3191f9; stroke:none;" d="M677 484L678 485L677 484z"/>
<path style="fill:#6fb2fb; stroke:none;" d="M590 485L591 486L590 485M441 486L442 487L441 486M589 486L590 487L589 486z"/>
<path style="fill:#3191f9; stroke:none;" d="M672 486L673 487L672 486z"/>
<path style="fill:#6fb2fb; stroke:none;" d="M672 487L673 488L672 487M676 487L677 488L676 487z"/>
<path style="fill:#3191f9; stroke:none;" d="M676 488L677 489L676 488M585 489L586 490L585 489z"/>
<path style="fill:#6fb2fb; stroke:none;" d="M671 489L672 490L671 489z"/>
<path style="fill:#3191f9; stroke:none;" d="M584 490L585 491L584 490z"/>
<path style="fill:#6fb2fb; stroke:none;" d="M675 490L676 491L675 490M583 491L584 492L583 491z"/>
<path style="fill:#3191f9; stroke:none;" d="M670 491L671 492L670 491M581 492L582 493L581 492z"/>
<path style="fill:#6fb2fb; stroke:none;" d="M588 492L589 493L588 492M670 492L671 493L670 492M674 492L675 493L674 492z"/>
<path style="fill:#3191f9; stroke:none;" d="M587 493L588 494L587 493M674 493L675 494L674 493M577 494L578 495L577 494M586 494L587 495L586 494z"/>
<path style="fill:#6fb2fb; stroke:none;" d="M669 494L670 495L669 494z"/>
<path style="fill:#3191f9; stroke:none;" d="M575 495L576 496L575 495z"/>
<path style="fill:#6fb2fb; stroke:none;" d="M584 495L585 496L584 495M673 495L674 496L673 495M573 496L574 497L573 496M582 496L583 497L582 496z"/>
<path style="fill:#3191f9; stroke:none;" d="M668 496L669 497L668 496z"/>
<path style="fill:#6fb2fb; stroke:none;" d="M569.667 497.333L570.333 497.667L569.667 497.333z"/>
<path style="fill:#3191f9; stroke:none;" d="M581 497L582 498L581 497z"/>
<path style="fill:#6fb2fb; stroke:none;" d="M672 497L673 498L672 497z"/>
<path style="fill:#3191f9; stroke:none;" d="M442 498L442 499L456 499L442 498M507 498L507 499L561 499L543 498L507 498z"/>
<path style="fill:#6fb2fb; stroke:none;" d="M561 498L561 499L565 499L561 498z"/>
<path style="fill:#3191f9; stroke:none;" d="M579 498L580 499L579 498M667 498L668 499L667 498z"/>
<path style="fill:#6fb2fb; stroke:none;" d="M576 499L577 500L576 499M671 499L672 500L671 499M507 500L508 501L507 500M573 500L574 501L573 500z"/>
<path style="fill:#3191f9; stroke:none;" d="M574 500L575 501L574 500M666 500L667 501L666 500z"/>
<path style="fill:#6fb2fb; stroke:none;" d="M570 501L571 502L570 501M670 501L671 502L670 501M438 502L438 503L455 503L438 502z"/>
<path style="fill:#3191f9; stroke:none;" d="M508 502L509 503L508 502z"/>
<path style="fill:#6fb2fb; stroke:none;" d="M514 502L514 503L563 503C550.348 497.691 527.788 502 514 502z"/>
<path style="fill:#3191f9; stroke:none;" d="M563 502L563 503L566 503L563 502z"/>
<path style="fill:#6fb2fb; stroke:none;" d="M665 502L666 503L665 502z"/>
<path style="fill:#3191f9; stroke:none;" d="M670 502L671 503L670 502z"/>
<path style="fill:#6fb2fb; stroke:none;" d="M455 503L456 504L455 503M509 503L510 504L509 503z"/>
<path style="fill:#3191f9; stroke:none;" d="M514 503L515 504L514 503z"/>
<path style="fill:#6fb2fb; stroke:none;" d="M669 503L670 504L669 503M456 504L457 505L456 504M664 504L665 505L664 504M457 505L458 506L457 505z"/>
<path style="fill:#3191f9; stroke:none;" d="M510 505L511 506L510 505M663 505L664 506L663 505z"/>
<path style="fill:#6fb2fb; stroke:none;" d="M668 505L669 506L668 505M458 506L459 507L458 506M511 506L512 507L511 506M516 506L517 507L516 506M459 507L460 508L459 507z"/>
<path style="fill:#3191f9; stroke:none;" d="M662 507L663 508L662 507M667 507L668 508L667 507z"/>
<path style="fill:#6fb2fb; stroke:none;" d="M460 508L461 509L460 508M461 509L462 510L461 509z"/>
<path style="fill:#3191f9; stroke:none;" d="M513 509L514 510L513 509z"/>
<path style="fill:#6fb2fb; stroke:none;" d="M518 509L519 510L518 509z"/>
<path style="fill:#3191f9; stroke:none;" d="M666 509L667 510L666 509z"/>
<path style="fill:#6fb2fb; stroke:none;" d="M462 510L463 511L462 510z"/>
<path style="fill:#3191f9; stroke:none;" d="M519 510L520 511L519 510z"/>
<path style="fill:#6fb2fb; stroke:none;" d="M660 510L661 511L660 510M665 510L666 511L665 510M463 511L464 512L463 511M464 512L465 513L464 512z"/>
<path style="fill:#3191f9; stroke:none;" d="M515 512L516 513L515 512z"/>
<path style="fill:#6fb2fb; stroke:none;" d="M520 512L521 513L520 512M465 513L466 514L465 513M516 513L517 514L516 513z"/>
<path style="fill:#3191f9; stroke:none;" d="M521 513L522 514L521 513z"/>
<path style="fill:#6fb2fb; stroke:none;" d="M658 513L659 514L658 513z"/>
<path style="fill:#3191f9; stroke:none;" d="M663 513L664 514L663 513z"/>
<path style="fill:#6fb2fb; stroke:none;" d="M466 514L467 515L466 514z"/>
<path style="fill:#3191f9; stroke:none;" d="M657 514L658 515L657 514z"/>
<path style="fill:#6fb2fb; stroke:none;" d="M662 514L663 515L662 514M467 515L468 516L467 515z"/>
<path style="fill:#3191f9; stroke:none;" d="M517 515L518 516L517 515M656 515L657 516L656 515z"/>
<path style="fill:#6fb2fb; stroke:none;" d="M468 516L469 517L468 516M518 516L519 517L518 516M523 516L524 517L523 516z"/>
<path style="fill:#3191f9; stroke:none;" d="M661 516L662 517L661 516z"/>
<path style="fill:#6fb2fb; stroke:none;" d="M469 517L470 518L469 517M519 517L520 518L519 517z"/>
<path style="fill:#3191f9; stroke:none;" d="M524 517L525 518L524 517M660 517L661 518L660 517z"/>
<path style="fill:#6fb2fb; stroke:none;" d="M470 518L471 519L470 518M654 518L655 519L654 518M659 518L660 519L659 518M471 519L472 520L471 519z"/>
<path style="fill:#3191f9; stroke:none;" d="M520 519L521 520L520 519M653 519L654 520L653 519z"/>
<path style="fill:#6fb2fb; stroke:none;" d="M472 520L473 521L472 520M521 520L522 521L521 520M526 520L527 521L526 520z"/>
<path style="fill:#3191f9; stroke:none;" d="M652 520L653 521L652 520z"/>
<path style="fill:#6fb2fb; stroke:none;" d="M473 521L474 522L473 521z"/>
<path style="fill:#3191f9; stroke:none;" d="M527 521L528 522L527 521M651 521L652 522L651 521z"/>
<path style="fill:#6fb2fb; stroke:none;" d="M474 522L475 523L474 522z"/>
<path style="fill:#3191f9; stroke:none;" d="M650 522L651 523L650 522M656 522L657 523L656 522z"/>
<path style="fill:#6fb2fb; stroke:none;" d="M475 523L476 524L475 523z"/>
<path style="fill:#3191f9; stroke:none;" d="M523 523L524 524L523 523M649 523L650 524L649 523M655 523L656 524L655 523z"/>
<path style="fill:#6fb2fb; stroke:none;" d="M476 524L477 525L476 524M524 524L525 525L524 524M529 524L530 525L529 524z"/>
<path style="fill:#3191f9; stroke:none;" d="M654 524L655 525L654 524z"/>
<path style="fill:#6fb2fb; stroke:none;" d="M477 525L478 526L477 525M525 525L526 526L525 525z"/>
<path style="fill:#3191f9; stroke:none;" d="M530 525L531 526L530 525M647 525L648 526L647 525z"/>
<path style="fill:#6fb2fb; stroke:none;" d="M653 525L654 526L653 525M478 526L479 527L478 526z"/>
<path style="fill:#3191f9; stroke:none;" d="M531 526L532 527L531 526M646 526L647 527L646 526z"/>
<path style="fill:#6fb2fb; stroke:none;" d="M652 526L653 527L652 526M479 527L480 528L479 527z"/>
<path style="fill:#3191f9; stroke:none;" d="M645 527L646 528L645 527z"/>
<path style="fill:#6fb2fb; stroke:none;" d="M651 527L652 528L651 527M480 528L481 529L480 528z"/>
<path style="fill:#3191f9; stroke:none;" d="M527 528L528 529L527 528M644 528L645 529L644 528z"/>
<path style="fill:#6fb2fb; stroke:none;" d="M650 528L651 529L650 528M481 529L482 530L481 529M528 529L529 530L528 529M533 529L534 530L533 529M643 529L644 530L643 529z"/>
<path style="fill:#3191f9; stroke:none;" d="M649 529L650 530L649 529z"/>
<path style="fill:#6fb2fb; stroke:none;" d="M482 530L483 531L482 530z"/>
<path style="fill:#3191f9; stroke:none;" d="M534 530L535 531L534 530M648 530L649 531L648 530z"/>
<path style="fill:#6fb2fb; stroke:none;" d="M483 531L484 532L483 531z"/>
<path style="fill:#3191f9; stroke:none;" d="M640 531L641 532L640 531M647 531L648 532L647 531z"/>
<path style="fill:#6fb2fb; stroke:none;" d="M484 532L485 533L484 532z"/>
<path style="fill:#3191f9; stroke:none;" d="M530 532L531 533L530 532z"/>
<path style="fill:#6fb2fb; stroke:none;" d="M639 532L640 533L639 532z"/>
<path style="fill:#3191f9; stroke:none;" d="M646 532L647 533L646 532z"/>
<path style="fill:#6fb2fb; stroke:none;" d="M485 533L486 534L485 533z"/>
<path style="fill:#3191f9; stroke:none;" d="M531 533L532 534L531 533z"/>
<path style="fill:#6fb2fb; stroke:none;" d="M638 533L639 534L638 533M486 534L487 535L486 534M532 534L533 535L532 534M537 534L538 535L537 534z"/>
<path style="fill:#3191f9; stroke:none;" d="M636 534L637 535L636 534z"/>
<path style="fill:#6fb2fb; stroke:none;" d="M643 534L644 535L643 534M487 535L488 536L487 535z"/>
<path style="fill:#3191f9; stroke:none;" d="M538 535L539 536L538 535z"/>
<path style="fill:#6fb2fb; stroke:none;" d="M635 535L636 536L635 535z"/>
<path style="fill:#3191f9; stroke:none;" d="M642 535L643 536L642 535z"/>
<path style="fill:#6fb2fb; stroke:none;" d="M488 536L489 537L488 536z"/>
<path style="fill:#3191f9; stroke:none;" d="M539 536L540 537L539 536M633 536L634 537L633 536M641 536L642 537L641 536z"/>
<path style="fill:#6fb2fb; stroke:none;" d="M489 537L490 538L489 537z"/>
<path style="fill:#3191f9; stroke:none;" d="M534 537L535 538L534 537z"/>
<path style="fill:#6fb2fb; stroke:none;" d="M632 537L633 538L632 537M639 537L640 538L639 537M490 538L491 539L490 538M535 538L536 539L535 538z"/>
<path style="fill:#3191f9; stroke:none;" d="M630 538L631 539L630 538M638 538L639 539L638 538z"/>
<path style="fill:#6fb2fb; stroke:none;" d="M491 539L492 540L491 539M536 539L537 540L536 539M629 539L630 540L629 539M636 539L637 540L636 539M492 540L493 541L492 540M542 540L543 541L542 540M627 540L628 541L627 540z"/>
<path style="fill:#3191f9; stroke:none;" d="M635 540L636 541L635 540z"/>
<path style="fill:#6fb2fb; stroke:none;" d="M493 541L494 542L493 541M543 541L544 542L543 541z"/>
<path style="fill:#3191f9; stroke:none;" d="M625 541L626 542L625 541z"/>
<path style="fill:#6fb2fb; stroke:none;" d="M633 541L634 542L633 541M494 542L495 543L494 542z"/>
<path style="fill:#3191f9; stroke:none;" d="M538 542L539 543L538 542M544 542L545 543L544 542M623 542L624 543L623 542M632 542L633 543L632 542z"/>
<path style="fill:#6fb2fb; stroke:none;" d="M495 543L496 544L495 543z"/>
<path style="fill:#3191f9; stroke:none;" d="M539 543L540 544L539 543z"/>
<path style="fill:#6fb2fb; stroke:none;" d="M621 543L622 544L621 543z"/>
<path style="fill:#3191f9; stroke:none;" d="M630 543L631 544L630 543z"/>
<path style="fill:#6fb2fb; stroke:none;" d="M496 544L497 545L496 544z"/>
<path style="fill:#3191f9; stroke:none;" d="M540 544L541 545L540 544z"/>
<path style="fill:#6fb2fb; stroke:none;" d="M619 544L620 545L619 544z"/>
<path style="fill:#3191f9; stroke:none;" d="M628 544L629 545L628 544z"/>
<path style="fill:#6fb2fb; stroke:none;" d="M497 545L498 546L497 545M541 545L542 546L541 545z"/>
<path style="fill:#3191f9; stroke:none;" d="M616 545L617 546L616 545z"/>
<path style="fill:#6fb2fb; stroke:none;" d="M626 545L627 546L626 545M498 546L499 547L498 546M542 546L543 547L542 546z"/>
<path style="fill:#3191f9; stroke:none;" d="M613 546L614 547L613 546z"/>
<path style="fill:#6fb2fb; stroke:none;" d="M614 546L615 547L614 546M624 546L625 547L624 546M499 547L500 548L499 547M548 547L549 548L548 547M611 547L612 548L611 547z"/>
<path style="fill:#3191f9; stroke:none;" d="M622 547L623 548L622 547z"/>
<path style="fill:#6fb2fb; stroke:none;" d="M500 548L501 549L500 548M549 548L550 549L549 548z"/>
<path style="fill:#3191f9; stroke:none;" d="M607 548L608 549L607 548z"/>
<path style="fill:#6fb2fb; stroke:none;" d="M608 548L609 549L608 548z"/>
<path style="fill:#3191f9; stroke:none;" d="M620 548L621 549L620 548z"/>
<path style="fill:#6fb2fb; stroke:none;" d="M501 549L502 550L501 549z"/>
<path style="fill:#010101; stroke:none;" d="M526 549L531 554L526 549z"/>
<path style="fill:#3191f9; stroke:none;" d="M550 549L551 550L550 549M603 549L604 550L603 549z"/>
<path style="fill:#6fb2fb; stroke:none;" d="M604 549L605 550L604 549M617 549L618 550L617 549M502 550L503 551L502 550z"/>
<path style="fill:#3191f9; stroke:none;" d="M545 550L546 551L545 550M551 550L552 551L551 550M598 550L599 551L598 550z"/>
<path style="fill:#6fb2fb; stroke:none;" d="M599.667 550.333L600.333 550.667L599.667 550.333M614 550L615 551L614 550z"/>
<path style="fill:#3191f9; stroke:none;" d="M615 550L616 551L615 550z"/>
<path style="fill:#6fb2fb; stroke:none;" d="M503 551L504 552L503 551z"/>
<path style="fill:#3191f9; stroke:none;" d="M546 551L547 552L546 551M552 551L553 552L552 551M592 551L593 552L592 551z"/>
<path style="fill:#6fb2fb; stroke:none;" d="M593.667 551.333L594.333 551.667L593.667 551.333M611 551L612 552L611 551z"/>
<path style="fill:#3191f9; stroke:none;" d="M612 551L613 552L612 551M236 552L237 553L236 552M547 552L548 553L547 552z"/>
<path style="fill:#6fb2fb; stroke:none;" d="M608 552L609 553L608 552z"/>
<path style="fill:#3191f9; stroke:none;" d="M609 552L610 553L609 552z"/>
<path style="fill:#6fb2fb; stroke:none;" d="M548 553L549 554L548 553M604 553L605 554L604 553z"/>
<path style="fill:#3191f9; stroke:none;" d="M605 553L606 554L605 553z"/>
<path style="fill:#6fb2fb; stroke:none;" d="M549 554L550 555L549 554M600 554L601 555L600 554z"/>
<path style="fill:#3191f9; stroke:none;" d="M601 554L602 555L601 554z"/>
<path style="fill:#6fb2fb; stroke:none;" d="M550 555L551 556L550 555M594.667 555.333L595.333 555.667L594.667 555.333z"/>
<path style="fill:#3191f9; stroke:none;" d="M596.667 555.333L597.333 555.667L596.667 555.333z"/>
<path style="fill:#6fb2fb; stroke:none;" d="M171 556L171 557L240 557L218 556L171 556z"/>
</svg>
